<mxfile host="65bd71144e">
    <diagram id="aXpFyYvzB9Qa_a3p6hsL" name="Deposit">
        <mxGraphModel dx="1963" dy="2771" grid="1" gridSize="10" guides="1" tooltips="1" connect="1" arrows="1" fold="1" page="1" pageScale="1" pageWidth="2336" pageHeight="1654" math="0" shadow="0">
            <root>
                <mxCell id="0"/>
                <mxCell id="1" parent="0"/>
                <mxCell id="14" style="edgeStyle=none;rounded=1;sketch=1;html=1;fontFamily=Fira Code;fontSource=https%3A%2F%2Ffonts.googleapis.com%2Fcss%3Ffamily%3DFira%2BCode;fontSize=12;fontColor=default;" edge="1" parent="1" source="9" target="13">
                    <mxGeometry relative="1" as="geometry"/>
                </mxCell>
                <mxCell id="9" value="Create Deposit" style="whiteSpace=wrap;html=1;verticalAlign=middle;rounded=1;sketch=1;fontSize=12;fontFamily=Fira Code;fontSource=https%3A%2F%2Ffonts.googleapis.com%2Fcss%3Ffamily%3DFira%2BCode;" vertex="1" parent="1">
                    <mxGeometry x="285" y="-1040" width="120" height="60" as="geometry"/>
                </mxCell>
                <mxCell id="13" value="deposit" style="shape=cylinder3;whiteSpace=wrap;html=1;boundedLbl=1;backgroundOutline=1;size=15;rounded=1;sketch=1;fontFamily=Fira Code;fontSource=https%3A%2F%2Ffonts.googleapis.com%2Fcss%3Ffamily%3DFira%2BCode;fontSize=12;fontColor=default;strokeColor=default;fillColor=default;" vertex="1" parent="1">
                    <mxGeometry x="490" y="-1050" width="60" height="80" as="geometry"/>
                </mxCell>
                <mxCell id="17" style="edgeStyle=none;rounded=1;sketch=1;html=1;fontFamily=Fira Code;fontSource=https%3A%2F%2Ffonts.googleapis.com%2Fcss%3Ffamily%3DFira%2BCode;fontSize=12;fontColor=default;" edge="1" parent="1" source="16" target="9">
                    <mxGeometry relative="1" as="geometry"/>
                </mxCell>
                <mxCell id="16" value="status = pending" style="text;html=1;strokeColor=none;fillColor=none;align=center;verticalAlign=middle;whiteSpace=wrap;rounded=0;sketch=1;fontFamily=Fira Code;fontSource=https%3A%2F%2Ffonts.googleapis.com%2Fcss%3Ffamily%3DFira%2BCode;fontSize=12;fontColor=default;" vertex="1" parent="1">
                    <mxGeometry x="80" y="-1025" width="140" height="30" as="geometry"/>
                </mxCell>
                <mxCell id="20" style="edgeStyle=none;rounded=1;sketch=1;html=1;fontFamily=Fira Code;fontSource=https%3A%2F%2Ffonts.googleapis.com%2Fcss%3Ffamily%3DFira%2BCode;fontSize=12;fontColor=default;" edge="1" parent="1" source="19" target="9">
                    <mxGeometry relative="1" as="geometry"/>
                </mxCell>
                <mxCell id="19" value="Click save" style="whiteSpace=wrap;html=1;verticalAlign=middle;rounded=1;sketch=1;fontSize=12;fontFamily=Fira Code;fontSource=https%3A%2F%2Ffonts.googleapis.com%2Fcss%3Ffamily%3DFira%2BCode;" vertex="1" parent="1">
                    <mxGeometry x="285" y="-1160" width="120" height="60" as="geometry"/>
                </mxCell>
                <mxCell id="22" style="edgeStyle=none;rounded=1;sketch=1;html=1;fontFamily=Fira Code;fontSource=https%3A%2F%2Ffonts.googleapis.com%2Fcss%3Ffamily%3DFira%2BCode;fontSize=12;fontColor=default;" edge="1" parent="1" source="21" target="19">
                    <mxGeometry relative="1" as="geometry"/>
                </mxCell>
                <mxCell id="21" value="Input data" style="whiteSpace=wrap;html=1;verticalAlign=middle;rounded=1;sketch=1;fontSize=12;fontFamily=Fira Code;fontSource=https%3A%2F%2Ffonts.googleapis.com%2Fcss%3Ffamily%3DFira%2BCode;" vertex="1" parent="1">
                    <mxGeometry x="285" y="-1280" width="120" height="60" as="geometry"/>
                </mxCell>
                <mxCell id="24" value="" style="edgeStyle=none;rounded=1;sketch=1;html=1;fontFamily=Fira Code;fontSource=https%3A%2F%2Ffonts.googleapis.com%2Fcss%3Ffamily%3DFira%2BCode;fontSize=12;fontColor=default;" edge="1" parent="1" source="23" target="21">
                    <mxGeometry relative="1" as="geometry"/>
                </mxCell>
                <mxCell id="23" value="Staff" style="shape=umlActor;verticalLabelPosition=top;verticalAlign=bottom;html=1;outlineConnect=0;rounded=1;sketch=1;fontFamily=Fira Code;fontSource=https%3A%2F%2Ffonts.googleapis.com%2Fcss%3Ffamily%3DFira%2BCode;fontSize=12;fontColor=default;strokeColor=default;fillColor=default;labelPosition=center;align=center;" vertex="1" parent="1">
                    <mxGeometry x="330" y="-1400" width="30" height="60" as="geometry"/>
                </mxCell>
                <mxCell id="48K4u6aNwopw94cNcizG-32" value="" style="edgeStyle=none;rounded=1;sketch=1;html=1;fontFamily=Fira Code;fontSource=https%3A%2F%2Ffonts.googleapis.com%2Fcss%3Ffamily%3DFira%2BCode;fontSize=12;fontColor=default;" edge="1" parent="1" source="48K4u6aNwopw94cNcizG-25" target="48K4u6aNwopw94cNcizG-31">
                    <mxGeometry relative="1" as="geometry"/>
                </mxCell>
                <mxCell id="48K4u6aNwopw94cNcizG-25" value="Actor" style="shape=umlActor;verticalLabelPosition=top;verticalAlign=bottom;html=1;outlineConnect=0;rounded=1;sketch=1;fontFamily=Fira Code;fontSource=https%3A%2F%2Ffonts.googleapis.com%2Fcss%3Ffamily%3DFira%2BCode;fontSize=12;fontColor=default;strokeColor=default;fillColor=default;labelPosition=center;align=center;" vertex="1" parent="1">
                    <mxGeometry x="820" y="-1400" width="30" height="60" as="geometry"/>
                </mxCell>
                <mxCell id="48K4u6aNwopw94cNcizG-27" value="" style="endArrow=none;dashed=1;html=1;dashPattern=1 3;strokeWidth=2;rounded=1;sketch=1;fontFamily=Fira Code;fontSource=https%3A%2F%2Ffonts.googleapis.com%2Fcss%3Ffamily%3DFira%2BCode;fontSize=12;fontColor=default;" edge="1" parent="1">
                    <mxGeometry width="50" height="50" relative="1" as="geometry">
                        <mxPoint x="650" y="-880" as="sourcePoint"/>
                        <mxPoint x="650" y="-1560" as="targetPoint"/>
                    </mxGeometry>
                </mxCell>
                <mxCell id="48K4u6aNwopw94cNcizG-29" value="&lt;h1&gt;Create Deposit&lt;/h1&gt;&lt;p&gt;When staff user create deposit document from panel&lt;/p&gt;" style="text;html=1;strokeColor=none;fillColor=none;spacing=5;spacingTop=-20;whiteSpace=wrap;overflow=hidden;rounded=0;sketch=1;fontFamily=Fira Code;fontSource=https%3A%2F%2Ffonts.googleapis.com%2Fcss%3Ffamily%3DFira%2BCode;fontSize=12;fontColor=default;" vertex="1" parent="1">
                    <mxGeometry x="330" y="-1560" width="280" height="120" as="geometry"/>
                </mxCell>
                <mxCell id="48K4u6aNwopw94cNcizG-30" value="&lt;h1&gt;Search Deposit Documents&lt;/h1&gt;&lt;p&gt;When staff user search deposit document into table&lt;/p&gt;" style="text;html=1;strokeColor=none;fillColor=none;spacing=5;spacingTop=-20;whiteSpace=wrap;overflow=hidden;rounded=0;sketch=1;fontFamily=Fira Code;fontSource=https%3A%2F%2Ffonts.googleapis.com%2Fcss%3Ffamily%3DFira%2BCode;fontSize=12;fontColor=default;" vertex="1" parent="1">
                    <mxGeometry x="930" y="-1560" width="280" height="120" as="geometry"/>
                </mxCell>
                <mxCell id="48K4u6aNwopw94cNcizG-34" value="" style="edgeStyle=none;rounded=1;sketch=1;html=1;fontFamily=Fira Code;fontSource=https%3A%2F%2Ffonts.googleapis.com%2Fcss%3Ffamily%3DFira%2BCode;fontSize=12;fontColor=default;" edge="1" parent="1" source="48K4u6aNwopw94cNcizG-31" target="48K4u6aNwopw94cNcizG-33">
                    <mxGeometry relative="1" as="geometry"/>
                </mxCell>
                <mxCell id="48K4u6aNwopw94cNcizG-31" value="Select search criteria" style="whiteSpace=wrap;html=1;fontFamily=Fira Code;verticalAlign=middle;rounded=1;sketch=1;fontSource=https%3A%2F%2Ffonts.googleapis.com%2Fcss%3Ffamily%3DFira%2BCode;" vertex="1" parent="1">
                    <mxGeometry x="775" y="-1280" width="120" height="60" as="geometry"/>
                </mxCell>
                <mxCell id="48K4u6aNwopw94cNcizG-36" value="" style="edgeStyle=none;rounded=1;sketch=1;html=1;fontFamily=Fira Code;fontSource=https%3A%2F%2Ffonts.googleapis.com%2Fcss%3Ffamily%3DFira%2BCode;fontSize=12;fontColor=default;" edge="1" parent="1" source="48K4u6aNwopw94cNcizG-33" target="48K4u6aNwopw94cNcizG-35">
                    <mxGeometry relative="1" as="geometry"/>
                </mxCell>
                <mxCell id="48K4u6aNwopw94cNcizG-33" value="Click search" style="whiteSpace=wrap;html=1;fontFamily=Fira Code;verticalAlign=middle;rounded=1;sketch=1;fontSource=https%3A%2F%2Ffonts.googleapis.com%2Fcss%3Ffamily%3DFira%2BCode;" vertex="1" parent="1">
                    <mxGeometry x="775" y="-1160" width="120" height="60" as="geometry"/>
                </mxCell>
                <mxCell id="48K4u6aNwopw94cNcizG-38" value="" style="edgeStyle=none;rounded=1;sketch=1;html=1;fontFamily=Fira Code;fontSource=https%3A%2F%2Ffonts.googleapis.com%2Fcss%3Ffamily%3DFira%2BCode;fontSize=12;fontColor=default;" edge="1" parent="1" source="48K4u6aNwopw94cNcizG-35" target="48K4u6aNwopw94cNcizG-37">
                    <mxGeometry relative="1" as="geometry"/>
                </mxCell>
                <mxCell id="48K4u6aNwopw94cNcizG-35" value="API Query data" style="whiteSpace=wrap;html=1;fontFamily=Fira Code;verticalAlign=middle;rounded=1;sketch=1;fontSource=https%3A%2F%2Ffonts.googleapis.com%2Fcss%3Ffamily%3DFira%2BCode;" vertex="1" parent="1">
                    <mxGeometry x="775" y="-1040" width="120" height="60" as="geometry"/>
                </mxCell>
                <mxCell id="48K4u6aNwopw94cNcizG-37" value="deposit" style="shape=cylinder3;whiteSpace=wrap;html=1;boundedLbl=1;backgroundOutline=1;size=15;rounded=1;sketch=1;fontFamily=Fira Code;fontSource=https%3A%2F%2Ffonts.googleapis.com%2Fcss%3Ffamily%3DFira%2BCode;fontSize=12;fontColor=default;strokeColor=default;fillColor=default;" vertex="1" parent="1">
                    <mxGeometry x="990" y="-1050" width="60" height="80" as="geometry"/>
                </mxCell>
                <mxCell id="48K4u6aNwopw94cNcizG-39" value="" style="endArrow=none;dashed=1;html=1;dashPattern=1 3;strokeWidth=2;rounded=1;sketch=1;fontFamily=Fira Code;fontSource=https%3A%2F%2Ffonts.googleapis.com%2Fcss%3Ffamily%3DFira%2BCode;fontSize=12;fontColor=default;" edge="1" parent="1">
                    <mxGeometry width="50" height="50" relative="1" as="geometry">
                        <mxPoint x="1210" y="-880" as="sourcePoint"/>
                        <mxPoint x="1210" y="-1560" as="targetPoint"/>
                    </mxGeometry>
                </mxCell>
                <mxCell id="48K4u6aNwopw94cNcizG-43" value="" style="edgeStyle=none;rounded=1;sketch=1;html=1;fontFamily=Fira Code;fontSource=https%3A%2F%2Ffonts.googleapis.com%2Fcss%3Ffamily%3DFira%2BCode;fontSize=12;fontColor=default;" edge="1" parent="1" source="48K4u6aNwopw94cNcizG-40" target="48K4u6aNwopw94cNcizG-42">
                    <mxGeometry relative="1" as="geometry"/>
                </mxCell>
                <mxCell id="48K4u6aNwopw94cNcizG-40" value="Actor" style="shape=umlActor;verticalLabelPosition=top;verticalAlign=bottom;html=1;outlineConnect=0;rounded=1;sketch=1;fontFamily=Fira Code;fontSource=https%3A%2F%2Ffonts.googleapis.com%2Fcss%3Ffamily%3DFira%2BCode;fontSize=12;fontColor=default;strokeColor=default;fillColor=default;labelPosition=center;align=center;" vertex="1" parent="1">
                    <mxGeometry x="1450" y="-1400" width="30" height="60" as="geometry"/>
                </mxCell>
                <mxCell id="48K4u6aNwopw94cNcizG-41" value="&lt;h1&gt;Get Deposit Detail&lt;/h1&gt;&lt;p&gt;When staff user clicked on some record of deposit document in table for view detail or do something&lt;/p&gt;" style="text;html=1;strokeColor=none;fillColor=none;spacing=5;spacingTop=-20;whiteSpace=wrap;overflow=hidden;rounded=0;sketch=1;fontFamily=Fira Code;fontSource=https%3A%2F%2Ffonts.googleapis.com%2Fcss%3Ffamily%3DFira%2BCode;fontSize=12;fontColor=default;" vertex="1" parent="1">
                    <mxGeometry x="1610" y="-1560" width="280" height="120" as="geometry"/>
                </mxCell>
                <mxCell id="48K4u6aNwopw94cNcizG-45" value="" style="edgeStyle=none;rounded=1;sketch=1;html=1;fontFamily=Fira Code;fontSource=https%3A%2F%2Ffonts.googleapis.com%2Fcss%3Ffamily%3DFira%2BCode;fontSize=12;fontColor=default;" edge="1" parent="1" source="48K4u6aNwopw94cNcizG-42" target="48K4u6aNwopw94cNcizG-44">
                    <mxGeometry relative="1" as="geometry"/>
                </mxCell>
                <mxCell id="48K4u6aNwopw94cNcizG-42" value="Click action button" style="whiteSpace=wrap;html=1;fontFamily=Fira Code;verticalAlign=middle;rounded=1;sketch=1;fontSource=https%3A%2F%2Ffonts.googleapis.com%2Fcss%3Ffamily%3DFira%2BCode;" vertex="1" parent="1">
                    <mxGeometry x="1405" y="-1280" width="120" height="60" as="geometry"/>
                </mxCell>
                <mxCell id="48K4u6aNwopw94cNcizG-64" value="" style="edgeStyle=orthogonalEdgeStyle;shape=connector;rounded=1;sketch=1;html=1;labelBackgroundColor=default;fontFamily=Fira Code;fontSource=https%3A%2F%2Ffonts.googleapis.com%2Fcss%3Ffamily%3DFira%2BCode;fontSize=12;fontColor=default;endArrow=classic;strokeColor=default;" edge="1" parent="1" source="48K4u6aNwopw94cNcizG-44" target="48K4u6aNwopw94cNcizG-63">
                    <mxGeometry relative="1" as="geometry"/>
                </mxCell>
                <mxCell id="48K4u6aNwopw94cNcizG-44" value="API flow" style="whiteSpace=wrap;html=1;fontFamily=Fira Code;verticalAlign=middle;rounded=1;sketch=1;fontSource=https%3A%2F%2Ffonts.googleapis.com%2Fcss%3Ffamily%3DFira%2BCode;" vertex="1" parent="1">
                    <mxGeometry x="1405" y="-1160" width="120" height="60" as="geometry"/>
                </mxCell>
                <mxCell id="48K4u6aNwopw94cNcizG-49" value="" style="edgeStyle=none;rounded=1;sketch=1;html=1;fontFamily=Fira Code;fontSource=https%3A%2F%2Ffonts.googleapis.com%2Fcss%3Ffamily%3DFira%2BCode;fontSize=12;fontColor=default;" edge="1" parent="1" source="48K4u6aNwopw94cNcizG-46" target="48K4u6aNwopw94cNcizG-48">
                    <mxGeometry relative="1" as="geometry"/>
                </mxCell>
                <mxCell id="48K4u6aNwopw94cNcizG-46" value="Check lock" style="whiteSpace=wrap;html=1;fontFamily=Fira Code;verticalAlign=middle;rounded=1;sketch=1;fontSource=https%3A%2F%2Ffonts.googleapis.com%2Fcss%3Ffamily%3DFira%2BCode;" vertex="1" parent="1">
                    <mxGeometry x="1405" y="-940" width="120" height="60" as="geometry"/>
                </mxCell>
                <mxCell id="48K4u6aNwopw94cNcizG-54" value="Yes" style="edgeStyle=none;rounded=1;sketch=1;html=1;fontFamily=Fira Code;fontSource=https%3A%2F%2Ffonts.googleapis.com%2Fcss%3Ffamily%3DFira%2BCode;fontSize=12;fontColor=default;" edge="1" parent="1" source="48K4u6aNwopw94cNcizG-48" target="48K4u6aNwopw94cNcizG-53">
                    <mxGeometry relative="1" as="geometry"/>
                </mxCell>
                <mxCell id="48K4u6aNwopw94cNcizG-58" value="No" style="edgeStyle=orthogonalEdgeStyle;rounded=1;sketch=1;html=1;fontFamily=Fira Code;fontSource=https%3A%2F%2Ffonts.googleapis.com%2Fcss%3Ffamily%3DFira%2BCode;fontSize=12;fontColor=default;" edge="1" parent="1" source="48K4u6aNwopw94cNcizG-48" target="48K4u6aNwopw94cNcizG-61">
                    <mxGeometry relative="1" as="geometry">
                        <mxPoint x="1465" y="-640" as="targetPoint"/>
                        <Array as="points">
                            <mxPoint x="1465" y="-680"/>
                        </Array>
                    </mxGeometry>
                </mxCell>
                <mxCell id="48K4u6aNwopw94cNcizG-48" value="locked ?" style="rhombus;whiteSpace=wrap;html=1;fontFamily=Fira Code;rounded=1;sketch=1;fontSource=https%3A%2F%2Ffonts.googleapis.com%2Fcss%3Ffamily%3DFira%2BCode;" vertex="1" parent="1">
                    <mxGeometry x="1425" y="-810" width="80" height="80" as="geometry"/>
                </mxCell>
                <mxCell id="48K4u6aNwopw94cNcizG-56" value="No" style="edgeStyle=none;rounded=1;sketch=1;html=1;fontFamily=Fira Code;fontSource=https%3A%2F%2Ffonts.googleapis.com%2Fcss%3Ffamily%3DFira%2BCode;fontSize=12;fontColor=default;" edge="1" parent="1" source="48K4u6aNwopw94cNcizG-53" target="48K4u6aNwopw94cNcizG-55">
                    <mxGeometry relative="1" as="geometry"/>
                </mxCell>
                <mxCell id="48K4u6aNwopw94cNcizG-59" value="Yes" style="edgeStyle=orthogonalEdgeStyle;rounded=1;sketch=1;html=1;fontFamily=Fira Code;fontSource=https%3A%2F%2Ffonts.googleapis.com%2Fcss%3Ffamily%3DFira%2BCode;fontSize=12;fontColor=default;" edge="1" parent="1" source="48K4u6aNwopw94cNcizG-53" target="48K4u6aNwopw94cNcizG-61">
                    <mxGeometry relative="1" as="geometry">
                        <mxPoint x="1525" y="-610" as="targetPoint"/>
                        <Array as="points">
                            <mxPoint x="1625" y="-680"/>
                        </Array>
                    </mxGeometry>
                </mxCell>
                <mxCell id="48K4u6aNwopw94cNcizG-53" value="is your ?" style="rhombus;whiteSpace=wrap;html=1;fontFamily=Fira Code;rounded=1;sketch=1;fontSource=https%3A%2F%2Ffonts.googleapis.com%2Fcss%3Ffamily%3DFira%2BCode;" vertex="1" parent="1">
                    <mxGeometry x="1585" y="-810" width="80" height="80" as="geometry"/>
                </mxCell>
                <mxCell id="48K4u6aNwopw94cNcizG-67" value="Yes" style="edgeStyle=orthogonalEdgeStyle;shape=connector;rounded=1;sketch=1;html=1;labelBackgroundColor=default;fontFamily=Fira Code;fontSource=https%3A%2F%2Ffonts.googleapis.com%2Fcss%3Ffamily%3DFira%2BCode;fontSize=12;fontColor=default;endArrow=classic;strokeColor=default;" edge="1" parent="1" source="48K4u6aNwopw94cNcizG-55" target="48K4u6aNwopw94cNcizG-60">
                    <mxGeometry relative="1" as="geometry">
                        <Array as="points">
                            <mxPoint x="1785" y="-560"/>
                        </Array>
                    </mxGeometry>
                </mxCell>
                <mxCell id="48K4u6aNwopw94cNcizG-70" value="" style="edgeStyle=orthogonalEdgeStyle;shape=connector;rounded=1;sketch=1;html=1;labelBackgroundColor=default;fontFamily=Fira Code;fontSource=https%3A%2F%2Ffonts.googleapis.com%2Fcss%3Ffamily%3DFira%2BCode;fontSize=12;fontColor=default;endArrow=classic;strokeColor=default;" edge="1" parent="1" source="48K4u6aNwopw94cNcizG-55" target="48K4u6aNwopw94cNcizG-69">
                    <mxGeometry relative="1" as="geometry"/>
                </mxCell>
                <mxCell id="48K4u6aNwopw94cNcizG-55" value="lock &amp;gt; 5 mins" style="rhombus;whiteSpace=wrap;html=1;fontFamily=Fira Code;rounded=1;sketch=1;fontSource=https%3A%2F%2Ffonts.googleapis.com%2Fcss%3Ffamily%3DFira%2BCode;" vertex="1" parent="1">
                    <mxGeometry x="1745" y="-810" width="80" height="80" as="geometry"/>
                </mxCell>
                <mxCell id="48K4u6aNwopw94cNcizG-72" value="" style="edgeStyle=orthogonalEdgeStyle;shape=connector;rounded=1;sketch=1;html=1;labelBackgroundColor=default;fontFamily=Fira Code;fontSource=https%3A%2F%2Ffonts.googleapis.com%2Fcss%3Ffamily%3DFira%2BCode;fontSize=12;fontColor=default;endArrow=classic;strokeColor=default;" edge="1" parent="1" source="48K4u6aNwopw94cNcizG-60" target="48K4u6aNwopw94cNcizG-71">
                    <mxGeometry relative="1" as="geometry"/>
                </mxCell>
                <mxCell id="48K4u6aNwopw94cNcizG-60" value="update&lt;br&gt;lock &amp;amp; lock by &amp;amp; lock date" style="whiteSpace=wrap;html=1;fontFamily=Fira Code;rounded=1;sketch=1;fontSource=https%3A%2F%2Ffonts.googleapis.com%2Fcss%3Ffamily%3DFira%2BCode;" vertex="1" parent="1">
                    <mxGeometry x="1490" y="-590" width="120" height="60" as="geometry"/>
                </mxCell>
                <mxCell id="48K4u6aNwopw94cNcizG-62" style="edgeStyle=orthogonalEdgeStyle;shape=connector;rounded=1;sketch=1;html=1;labelBackgroundColor=default;fontFamily=Fira Code;fontSource=https%3A%2F%2Ffonts.googleapis.com%2Fcss%3Ffamily%3DFira%2BCode;fontSize=12;fontColor=default;endArrow=classic;strokeColor=default;" edge="1" parent="1" source="48K4u6aNwopw94cNcizG-61" target="48K4u6aNwopw94cNcizG-60">
                    <mxGeometry relative="1" as="geometry"/>
                </mxCell>
                <mxCell id="48K4u6aNwopw94cNcizG-61" value="" style="verticalLabelPosition=bottom;verticalAlign=top;html=1;shape=mxgraph.flowchart.on-page_reference;rounded=1;sketch=1;fontFamily=Fira Code;fontSource=https%3A%2F%2Ffonts.googleapis.com%2Fcss%3Ffamily%3DFira%2BCode;fontSize=12;fontColor=default;strokeColor=default;fillColor=default;" vertex="1" parent="1">
                    <mxGeometry x="1520" y="-710" width="60" height="60" as="geometry"/>
                </mxCell>
                <mxCell id="48K4u6aNwopw94cNcizG-65" value="" style="edgeStyle=orthogonalEdgeStyle;shape=connector;rounded=1;sketch=1;html=1;labelBackgroundColor=default;fontFamily=Fira Code;fontSource=https%3A%2F%2Ffonts.googleapis.com%2Fcss%3Ffamily%3DFira%2BCode;fontSize=12;fontColor=default;endArrow=classic;strokeColor=default;" edge="1" parent="1" source="48K4u6aNwopw94cNcizG-63" target="48K4u6aNwopw94cNcizG-46">
                    <mxGeometry relative="1" as="geometry"/>
                </mxCell>
                <mxCell id="48K4u6aNwopw94cNcizG-63" value="Get data by _id" style="whiteSpace=wrap;html=1;fontFamily=Fira Code;verticalAlign=middle;rounded=1;sketch=1;fontSource=https%3A%2F%2Ffonts.googleapis.com%2Fcss%3Ffamily%3DFira%2BCode;" vertex="1" parent="1">
                    <mxGeometry x="1405" y="-1050" width="120" height="60" as="geometry"/>
                </mxCell>
                <mxCell id="48K4u6aNwopw94cNcizG-69" value="Response error&lt;br&gt;locked document" style="whiteSpace=wrap;html=1;fontFamily=Fira Code;rounded=1;sketch=1;fontSource=https%3A%2F%2Ffonts.googleapis.com%2Fcss%3Ffamily%3DFira%2BCode;" vertex="1" parent="1">
                    <mxGeometry x="1725" y="-960" width="120" height="60" as="geometry"/>
                </mxCell>
                <mxCell id="48K4u6aNwopw94cNcizG-71" value="Response success&lt;br&gt;deposit data" style="whiteSpace=wrap;html=1;fontFamily=Fira Code;rounded=1;sketch=1;fontSource=https%3A%2F%2Ffonts.googleapis.com%2Fcss%3Ffamily%3DFira%2BCode;" vertex="1" parent="1">
                    <mxGeometry x="1290" y="-590" width="120" height="60" as="geometry"/>
                </mxCell>
                <mxCell id="48K4u6aNwopw94cNcizG-73" value="" style="endArrow=none;dashed=1;html=1;dashPattern=1 3;strokeWidth=2;rounded=1;sketch=1;fontFamily=Fira Code;fontSource=https%3A%2F%2Ffonts.googleapis.com%2Fcss%3Ffamily%3DFira%2BCode;fontSize=12;fontColor=default;" edge="1" parent="1">
                    <mxGeometry width="50" height="50" relative="1" as="geometry">
                        <mxPoint x="1930" y="-880" as="sourcePoint"/>
                        <mxPoint x="1930" y="-1560" as="targetPoint"/>
                    </mxGeometry>
                </mxCell>
                <mxCell id="48K4u6aNwopw94cNcizG-74" value="&lt;h1&gt;Update Deposit Detail&lt;/h1&gt;&lt;p&gt;When staff user clicked some action button on deposit modal &lt;br&gt;(Approve, Reject, Save)&amp;nbsp;&lt;/p&gt;" style="text;html=1;strokeColor=none;fillColor=none;spacing=5;spacingTop=-20;whiteSpace=wrap;overflow=hidden;rounded=0;sketch=1;fontFamily=Fira Code;fontSource=https%3A%2F%2Ffonts.googleapis.com%2Fcss%3Ffamily%3DFira%2BCode;fontSize=12;fontColor=default;" vertex="1" parent="1">
                    <mxGeometry x="2370" y="-1560" width="320" height="120" as="geometry"/>
                </mxCell>
                <mxCell id="48K4u6aNwopw94cNcizG-75" value="" style="edgeStyle=none;rounded=1;sketch=1;html=1;fontFamily=Fira Code;fontSource=https%3A%2F%2Ffonts.googleapis.com%2Fcss%3Ffamily%3DFira%2BCode;fontSize=12;fontColor=default;" edge="1" parent="1" source="48K4u6aNwopw94cNcizG-76" target="48K4u6aNwopw94cNcizG-77">
                    <mxGeometry relative="1" as="geometry"/>
                </mxCell>
                <mxCell id="48K4u6aNwopw94cNcizG-76" value="Actor" style="shape=umlActor;verticalLabelPosition=top;verticalAlign=bottom;html=1;outlineConnect=0;rounded=1;sketch=1;fontFamily=Fira Code;fontSource=https%3A%2F%2Ffonts.googleapis.com%2Fcss%3Ffamily%3DFira%2BCode;fontSize=12;fontColor=default;strokeColor=default;fillColor=default;labelPosition=center;align=center;" vertex="1" parent="1">
                    <mxGeometry x="2235" y="-1400" width="30" height="60" as="geometry"/>
                </mxCell>
                <mxCell id="48K4u6aNwopw94cNcizG-81" value="" style="edgeStyle=orthogonalEdgeStyle;shape=connector;rounded=1;sketch=1;html=1;labelBackgroundColor=default;fontFamily=Fira Code;fontSource=https%3A%2F%2Ffonts.googleapis.com%2Fcss%3Ffamily%3DFira%2BCode;fontSize=12;fontColor=default;endArrow=classic;strokeColor=default;" edge="1" parent="1" source="48K4u6aNwopw94cNcizG-77" target="48K4u6aNwopw94cNcizG-80">
                    <mxGeometry relative="1" as="geometry"/>
                </mxCell>
                <mxCell id="48K4u6aNwopw94cNcizG-77" value="Input missing data" style="whiteSpace=wrap;html=1;fontFamily=Fira Code;verticalAlign=middle;rounded=1;sketch=1;fontSource=https%3A%2F%2Ffonts.googleapis.com%2Fcss%3Ffamily%3DFira%2BCode;" vertex="1" parent="1">
                    <mxGeometry x="2190" y="-1280" width="120" height="60" as="geometry"/>
                </mxCell>
                <mxCell id="48K4u6aNwopw94cNcizG-79" value="" style="edgeStyle=orthogonalEdgeStyle;shape=connector;rounded=1;sketch=1;html=1;labelBackgroundColor=default;fontFamily=Fira Code;fontSource=https%3A%2F%2Ffonts.googleapis.com%2Fcss%3Ffamily%3DFira%2BCode;fontSize=12;fontColor=default;endArrow=classic;strokeColor=default;" edge="1" parent="1" source="48K4u6aNwopw94cNcizG-78" target="48K4u6aNwopw94cNcizG-77">
                    <mxGeometry relative="1" as="geometry"/>
                </mxCell>
                <mxCell id="48K4u6aNwopw94cNcizG-78" value="type = auto dposit &amp;amp; status != success" style="text;html=1;strokeColor=none;fillColor=none;align=left;verticalAlign=middle;whiteSpace=wrap;rounded=0;sketch=1;fontFamily=Fira Code;fontSource=https%3A%2F%2Ffonts.googleapis.com%2Fcss%3Ffamily%3DFira%2BCode;fontSize=12;fontColor=default;" vertex="1" parent="1">
                    <mxGeometry x="2370" y="-1265" width="280" height="30" as="geometry"/>
                </mxCell>
                <mxCell id="48K4u6aNwopw94cNcizG-85" value="" style="edgeStyle=orthogonalEdgeStyle;shape=connector;rounded=1;sketch=1;html=1;labelBackgroundColor=default;fontFamily=Fira Code;fontSource=https%3A%2F%2Ffonts.googleapis.com%2Fcss%3Ffamily%3DFira%2BCode;fontSize=12;fontColor=default;endArrow=classic;strokeColor=default;" edge="1" parent="1" source="48K4u6aNwopw94cNcizG-80" target="48K4u6aNwopw94cNcizG-84">
                    <mxGeometry relative="1" as="geometry"/>
                </mxCell>
                <mxCell id="48K4u6aNwopw94cNcizG-80" value="Click button" style="whiteSpace=wrap;html=1;fontFamily=Fira Code;verticalAlign=middle;rounded=1;sketch=1;fontSource=https%3A%2F%2Ffonts.googleapis.com%2Fcss%3Ffamily%3DFira%2BCode;" vertex="1" parent="1">
                    <mxGeometry x="2190" y="-1160" width="120" height="60" as="geometry"/>
                </mxCell>
                <mxCell id="48K4u6aNwopw94cNcizG-83" style="edgeStyle=orthogonalEdgeStyle;shape=connector;rounded=1;sketch=1;html=1;labelBackgroundColor=default;fontFamily=Fira Code;fontSource=https%3A%2F%2Ffonts.googleapis.com%2Fcss%3Ffamily%3DFira%2BCode;fontSize=12;fontColor=default;endArrow=classic;strokeColor=default;" edge="1" parent="1" source="48K4u6aNwopw94cNcizG-82" target="48K4u6aNwopw94cNcizG-80">
                    <mxGeometry relative="1" as="geometry"/>
                </mxCell>
                <mxCell id="48K4u6aNwopw94cNcizG-82" value="Approve, Reject, Save" style="text;html=1;strokeColor=none;fillColor=none;align=left;verticalAlign=middle;whiteSpace=wrap;rounded=0;sketch=1;fontFamily=Fira Code;fontSource=https%3A%2F%2Ffonts.googleapis.com%2Fcss%3Ffamily%3DFira%2BCode;fontSize=12;fontColor=default;" vertex="1" parent="1">
                    <mxGeometry x="2370" y="-1145" width="160" height="30" as="geometry"/>
                </mxCell>
                <mxCell id="48K4u6aNwopw94cNcizG-87" value="" style="edgeStyle=orthogonalEdgeStyle;shape=connector;rounded=1;sketch=1;html=1;labelBackgroundColor=default;fontFamily=Fira Code;fontSource=https%3A%2F%2Ffonts.googleapis.com%2Fcss%3Ffamily%3DFira%2BCode;fontSize=12;fontColor=default;endArrow=classic;strokeColor=default;" edge="1" parent="1" source="48K4u6aNwopw94cNcizG-84" target="48K4u6aNwopw94cNcizG-86">
                    <mxGeometry relative="1" as="geometry"/>
                </mxCell>
                <mxCell id="48K4u6aNwopw94cNcizG-84" value="API Flow" style="whiteSpace=wrap;html=1;fontFamily=Fira Code;verticalAlign=middle;rounded=1;sketch=1;fontSource=https%3A%2F%2Ffonts.googleapis.com%2Fcss%3Ffamily%3DFira%2BCode;" vertex="1" parent="1">
                    <mxGeometry x="2190" y="-1040" width="120" height="60" as="geometry"/>
                </mxCell>
                <mxCell id="48K4u6aNwopw94cNcizG-89" value="" style="edgeStyle=orthogonalEdgeStyle;shape=connector;rounded=1;sketch=1;html=1;labelBackgroundColor=default;fontFamily=Fira Code;fontSource=https%3A%2F%2Ffonts.googleapis.com%2Fcss%3Ffamily%3DFira%2BCode;fontSize=12;fontColor=default;endArrow=classic;strokeColor=default;" edge="1" parent="1" source="48K4u6aNwopw94cNcizG-86" target="48K4u6aNwopw94cNcizG-88">
                    <mxGeometry relative="1" as="geometry"/>
                </mxCell>
                <mxCell id="48K4u6aNwopw94cNcizG-86" value="Check lock" style="whiteSpace=wrap;html=1;fontFamily=Fira Code;verticalAlign=middle;rounded=1;sketch=1;fontSource=https%3A%2F%2Ffonts.googleapis.com%2Fcss%3Ffamily%3DFira%2BCode;" vertex="1" parent="1">
                    <mxGeometry x="2190" y="-920" width="120" height="60" as="geometry"/>
                </mxCell>
                <mxCell id="48K4u6aNwopw94cNcizG-91" value="No" style="edgeStyle=orthogonalEdgeStyle;shape=connector;rounded=1;sketch=1;html=1;labelBackgroundColor=default;fontFamily=Fira Code;fontSource=https%3A%2F%2Ffonts.googleapis.com%2Fcss%3Ffamily%3DFira%2BCode;fontSize=12;fontColor=default;endArrow=classic;strokeColor=default;" edge="1" parent="1" source="48K4u6aNwopw94cNcizG-88" target="48K4u6aNwopw94cNcizG-90">
                    <mxGeometry relative="1" as="geometry"/>
                </mxCell>
                <mxCell id="48K4u6aNwopw94cNcizG-93" value="Yes" style="edgeStyle=orthogonalEdgeStyle;shape=connector;rounded=1;sketch=1;html=1;labelBackgroundColor=default;fontFamily=Fira Code;fontSource=https%3A%2F%2Ffonts.googleapis.com%2Fcss%3Ffamily%3DFira%2BCode;fontSize=12;fontColor=default;endArrow=classic;strokeColor=default;" edge="1" parent="1" source="48K4u6aNwopw94cNcizG-88" target="48K4u6aNwopw94cNcizG-102">
                    <mxGeometry relative="1" as="geometry">
                        <mxPoint x="2370" y="-760" as="targetPoint"/>
                    </mxGeometry>
                </mxCell>
                <mxCell id="48K4u6aNwopw94cNcizG-88" value="locked ?&lt;br&gt;&amp;amp;&lt;br&gt;Your ?" style="rhombus;whiteSpace=wrap;html=1;fontFamily=Fira Code;rounded=1;sketch=1;fontSource=https%3A%2F%2Ffonts.googleapis.com%2Fcss%3Ffamily%3DFira%2BCode;" vertex="1" parent="1">
                    <mxGeometry x="2210" y="-800" width="80" height="80" as="geometry"/>
                </mxCell>
                <mxCell id="48K4u6aNwopw94cNcizG-90" value="Response error&lt;br&gt;locked document error" style="whiteSpace=wrap;html=1;fontFamily=Fira Code;rounded=1;sketch=1;fontSource=https%3A%2F%2Ffonts.googleapis.com%2Fcss%3Ffamily%3DFira%2BCode;" vertex="1" parent="1">
                    <mxGeometry x="2010" y="-790" width="120" height="60" as="geometry"/>
                </mxCell>
                <mxCell id="48K4u6aNwopw94cNcizG-105" value="" style="edgeStyle=orthogonalEdgeStyle;shape=connector;rounded=1;sketch=1;html=1;labelBackgroundColor=default;fontFamily=Fira Code;fontSource=https%3A%2F%2Ffonts.googleapis.com%2Fcss%3Ffamily%3DFira%2BCode;fontSize=12;fontColor=default;endArrow=classic;strokeColor=default;" edge="1" parent="1" source="48K4u6aNwopw94cNcizG-102" target="48K4u6aNwopw94cNcizG-104">
                    <mxGeometry relative="1" as="geometry"/>
                </mxCell>
                <mxCell id="48K4u6aNwopw94cNcizG-102" value="check action status" style="whiteSpace=wrap;html=1;fontFamily=Fira Code;rounded=1;sketch=1;fontSource=https%3A%2F%2Ffonts.googleapis.com%2Fcss%3Ffamily%3DFira%2BCode;" vertex="1" parent="1">
                    <mxGeometry x="2370" y="-790" width="120" height="60" as="geometry"/>
                </mxCell>
                <mxCell id="48K4u6aNwopw94cNcizG-111" value="No" style="edgeStyle=orthogonalEdgeStyle;shape=connector;rounded=1;sketch=1;html=1;labelBackgroundColor=default;fontFamily=Fira Code;fontSource=https%3A%2F%2Ffonts.googleapis.com%2Fcss%3Ffamily%3DFira%2BCode;fontSize=12;fontColor=default;endArrow=classic;strokeColor=default;" edge="1" parent="1" source="48K4u6aNwopw94cNcizG-104" target="48K4u6aNwopw94cNcizG-107">
                    <mxGeometry relative="1" as="geometry"/>
                </mxCell>
                <mxCell id="48K4u6aNwopw94cNcizG-113" value="" style="edgeStyle=orthogonalEdgeStyle;shape=connector;rounded=1;sketch=1;html=1;labelBackgroundColor=default;fontFamily=Fira Code;fontSource=https%3A%2F%2Ffonts.googleapis.com%2Fcss%3Ffamily%3DFira%2BCode;fontSize=12;fontColor=default;endArrow=classic;strokeColor=default;" edge="1" parent="1" source="48K4u6aNwopw94cNcizG-104" target="48K4u6aNwopw94cNcizG-112">
                    <mxGeometry relative="1" as="geometry"/>
                </mxCell>
                <mxCell id="48K4u6aNwopw94cNcizG-104" value="approve ?" style="rhombus;whiteSpace=wrap;html=1;fontFamily=Fira Code;rounded=1;sketch=1;fontSource=https%3A%2F%2Ffonts.googleapis.com%2Fcss%3Ffamily%3DFira%2BCode;" vertex="1" parent="1">
                    <mxGeometry x="2390" y="-660" width="80" height="80" as="geometry"/>
                </mxCell>
                <mxCell id="48K4u6aNwopw94cNcizG-106" value="" style="edgeStyle=orthogonalEdgeStyle;shape=connector;rounded=1;sketch=1;html=1;labelBackgroundColor=default;fontFamily=Fira Code;fontSource=https%3A%2F%2Ffonts.googleapis.com%2Fcss%3Ffamily%3DFira%2BCode;fontSize=12;fontColor=default;endArrow=classic;strokeColor=default;" edge="1" parent="1" source="48K4u6aNwopw94cNcizG-107" target="48K4u6aNwopw94cNcizG-110">
                    <mxGeometry relative="1" as="geometry"/>
                </mxCell>
                <mxCell id="48K4u6aNwopw94cNcizG-107" value="Update deposit document" style="whiteSpace=wrap;html=1;fontFamily=Fira Code;rounded=1;sketch=1;fontSource=https%3A%2F%2Ffonts.googleapis.com%2Fcss%3Ffamily%3DFira%2BCode;" vertex="1" parent="1">
                    <mxGeometry x="2370" y="-520" width="120" height="60" as="geometry"/>
                </mxCell>
                <mxCell id="48K4u6aNwopw94cNcizG-108" value="Response success" style="whiteSpace=wrap;html=1;fontFamily=Fira Code;rounded=1;sketch=1;fontSource=https%3A%2F%2Ffonts.googleapis.com%2Fcss%3Ffamily%3DFira%2BCode;" vertex="1" parent="1">
                    <mxGeometry x="2370" y="-280" width="120" height="60" as="geometry"/>
                </mxCell>
                <mxCell id="48K4u6aNwopw94cNcizG-109" value="" style="edgeStyle=orthogonalEdgeStyle;shape=connector;rounded=1;sketch=1;html=1;labelBackgroundColor=default;fontFamily=Fira Code;fontSource=https%3A%2F%2Ffonts.googleapis.com%2Fcss%3Ffamily%3DFira%2BCode;fontSize=12;fontColor=default;endArrow=classic;strokeColor=default;" edge="1" parent="1" source="48K4u6aNwopw94cNcizG-110" target="48K4u6aNwopw94cNcizG-108">
                    <mxGeometry relative="1" as="geometry"/>
                </mxCell>
                <mxCell id="48K4u6aNwopw94cNcizG-110" value="&lt;font face=&quot;fira code&quot;&gt;clear&lt;/font&gt;&lt;br style=&quot;color: rgb(240 , 240 , 240) ; font-family: &amp;#34;fira code&amp;#34; ; font-size: 12px ; font-style: normal ; font-weight: 400 ; letter-spacing: normal ; text-align: center ; text-indent: 0px ; text-transform: none ; word-spacing: 0px ; background-color: rgb(42 , 42 , 42)&quot;&gt;&lt;span style=&quot;color: rgb(240 , 240 , 240) ; font-family: &amp;#34;fira code&amp;#34; ; font-size: 12px ; font-style: normal ; font-weight: 400 ; letter-spacing: normal ; text-align: center ; text-indent: 0px ; text-transform: none ; word-spacing: 0px ; background-color: rgb(42 , 42 , 42) ; display: inline ; float: none&quot;&gt;lock &amp;amp; lock by &amp;amp; lock date&lt;/span&gt;" style="whiteSpace=wrap;html=1;fontFamily=Fira Code;rounded=1;sketch=1;fontSource=https%3A%2F%2Ffonts.googleapis.com%2Fcss%3Ffamily%3DFira%2BCode;" vertex="1" parent="1">
                    <mxGeometry x="2370" y="-400" width="120" height="60" as="geometry"/>
                </mxCell>
                <mxCell id="48K4u6aNwopw94cNcizG-115" value="" style="edgeStyle=orthogonalEdgeStyle;shape=connector;rounded=1;sketch=1;html=1;labelBackgroundColor=default;fontFamily=Fira Code;fontSource=https%3A%2F%2Ffonts.googleapis.com%2Fcss%3Ffamily%3DFira%2BCode;fontSize=12;fontColor=default;endArrow=classic;strokeColor=default;" edge="1" parent="1" source="48K4u6aNwopw94cNcizG-112" target="48K4u6aNwopw94cNcizG-114">
                    <mxGeometry relative="1" as="geometry"/>
                </mxCell>
                <mxCell id="48K4u6aNwopw94cNcizG-112" value="Deposit to provider" style="whiteSpace=wrap;html=1;fontFamily=Fira Code;rounded=1;sketch=1;fontSource=https%3A%2F%2Ffonts.googleapis.com%2Fcss%3Ffamily%3DFira%2BCode;" vertex="1" parent="1">
                    <mxGeometry x="2210" y="-650" width="120" height="60" as="geometry"/>
                </mxCell>
                <mxCell id="48K4u6aNwopw94cNcizG-116" style="edgeStyle=orthogonalEdgeStyle;shape=connector;rounded=1;sketch=1;html=1;labelBackgroundColor=default;fontFamily=Fira Code;fontSource=https%3A%2F%2Ffonts.googleapis.com%2Fcss%3Ffamily%3DFira%2BCode;fontSize=12;fontColor=default;endArrow=classic;strokeColor=default;" edge="1" parent="1" source="48K4u6aNwopw94cNcizG-114" target="48K4u6aNwopw94cNcizG-107">
                    <mxGeometry relative="1" as="geometry">
                        <Array as="points">
                            <mxPoint x="2070" y="-490"/>
                        </Array>
                    </mxGeometry>
                </mxCell>
                <mxCell id="48K4u6aNwopw94cNcizG-114" value="update status check turnover last record" style="whiteSpace=wrap;html=1;fontFamily=Fira Code;rounded=1;sketch=1;fontSource=https%3A%2F%2Ffonts.googleapis.com%2Fcss%3Ffamily%3DFira%2BCode;" vertex="1" parent="1">
                    <mxGeometry x="2010" y="-650" width="120" height="60" as="geometry"/>
                </mxCell>
                <mxCell id="48K4u6aNwopw94cNcizG-118" value="" style="endArrow=none;dashed=1;html=1;dashPattern=1 3;strokeWidth=2;rounded=1;sketch=1;fontFamily=Fira Code;fontSource=https%3A%2F%2Ffonts.googleapis.com%2Fcss%3Ffamily%3DFira%2BCode;fontSize=12;fontColor=default;" edge="1" parent="1">
                    <mxGeometry width="50" height="50" relative="1" as="geometry">
                        <mxPoint x="2730" y="-890" as="sourcePoint"/>
                        <mxPoint x="2730" y="-1570" as="targetPoint"/>
                    </mxGeometry>
                </mxCell>
                <mxCell id="48K4u6aNwopw94cNcizG-119" value="&lt;h1&gt;CronJob check turnover&lt;/h1&gt;&lt;p&gt;API CronJob for check turnover of deposit document which data has checking status&amp;nbsp;&lt;/p&gt;" style="text;html=1;strokeColor=none;fillColor=none;spacing=5;spacingTop=-20;whiteSpace=wrap;overflow=hidden;rounded=0;sketch=1;fontFamily=Fira Code;fontSource=https%3A%2F%2Ffonts.googleapis.com%2Fcss%3Ffamily%3DFira%2BCode;fontSize=12;fontColor=default;" vertex="1" parent="1">
                    <mxGeometry x="3160" y="-1560" width="350" height="120" as="geometry"/>
                </mxCell>
                <mxCell id="48K4u6aNwopw94cNcizG-123" value="working = true" style="edgeStyle=orthogonalEdgeStyle;shape=connector;rounded=1;sketch=1;html=1;labelBackgroundColor=default;fontFamily=Fira Code;fontSource=https%3A%2F%2Ffonts.googleapis.com%2Fcss%3Ffamily%3DFira%2BCode;fontSize=12;fontColor=default;endArrow=classic;strokeColor=default;" edge="1" parent="1" source="48K4u6aNwopw94cNcizG-121" target="48K4u6aNwopw94cNcizG-122">
                    <mxGeometry relative="1" as="geometry"/>
                </mxCell>
                <mxCell id="48K4u6aNwopw94cNcizG-121" value="start CronJob&lt;br&gt;every 5 second" style="rounded=1;whiteSpace=wrap;html=1;sketch=1;fontFamily=Fira Code;fontSource=https%3A%2F%2Ffonts.googleapis.com%2Fcss%3Ffamily%3DFira%2BCode;fontSize=12;fontColor=default;strokeColor=default;fillColor=default;" vertex="1" parent="1">
                    <mxGeometry x="2920" y="-1440" width="120" height="60" as="geometry"/>
                </mxCell>
                <mxCell id="48K4u6aNwopw94cNcizG-129" value="" style="edgeStyle=orthogonalEdgeStyle;shape=connector;rounded=1;sketch=1;html=1;labelBackgroundColor=default;fontFamily=Fira Code;fontSource=https%3A%2F%2Ffonts.googleapis.com%2Fcss%3Ffamily%3DFira%2BCode;fontSize=12;fontColor=default;endArrow=classic;strokeColor=default;" edge="1" parent="1" source="48K4u6aNwopw94cNcizG-122" target="48K4u6aNwopw94cNcizG-128">
                    <mxGeometry relative="1" as="geometry"/>
                </mxCell>
                <mxCell id="48K4u6aNwopw94cNcizG-122" value="find &amp;amp; update deposit document" style="rounded=1;whiteSpace=wrap;html=1;sketch=1;fontFamily=Fira Code;fontSource=https%3A%2F%2Ffonts.googleapis.com%2Fcss%3Ffamily%3DFira%2BCode;fontSize=12;fontColor=default;strokeColor=default;fillColor=default;" vertex="1" parent="1">
                    <mxGeometry x="2920" y="-1320" width="120" height="60" as="geometry"/>
                </mxCell>
                <mxCell id="48K4u6aNwopw94cNcizG-125" value="" style="edgeStyle=orthogonalEdgeStyle;shape=connector;rounded=1;sketch=1;html=1;labelBackgroundColor=default;fontFamily=Fira Code;fontSource=https%3A%2F%2Ffonts.googleapis.com%2Fcss%3Ffamily%3DFira%2BCode;fontSize=12;fontColor=default;endArrow=classic;strokeColor=default;" edge="1" parent="1" source="48K4u6aNwopw94cNcizG-124" target="48K4u6aNwopw94cNcizG-122">
                    <mxGeometry relative="1" as="geometry"/>
                </mxCell>
                <mxCell id="48K4u6aNwopw94cNcizG-124" value="check turnover status = true &lt;br&gt;&amp;amp; &lt;br&gt;&lt;div&gt;&lt;span&gt;check turnover date &amp;lt; date now&lt;/span&gt;&lt;/div&gt;" style="text;html=1;strokeColor=none;fillColor=none;align=center;verticalAlign=middle;whiteSpace=wrap;rounded=0;sketch=1;fontFamily=Fira Code;fontSource=https%3A%2F%2Ffonts.googleapis.com%2Fcss%3Ffamily%3DFira%2BCode;fontSize=12;fontColor=default;" vertex="1" parent="1">
                    <mxGeometry x="3100" y="-1305" width="260" height="30" as="geometry"/>
                </mxCell>
                <mxCell id="48K4u6aNwopw94cNcizG-133" value="Yes" style="edgeStyle=orthogonalEdgeStyle;shape=connector;rounded=1;sketch=1;html=1;labelBackgroundColor=default;fontFamily=Fira Code;fontSource=https%3A%2F%2Ffonts.googleapis.com%2Fcss%3Ffamily%3DFira%2BCode;fontSize=12;fontColor=default;endArrow=classic;strokeColor=default;" edge="1" parent="1" source="48K4u6aNwopw94cNcizG-128" target="48K4u6aNwopw94cNcizG-132">
                    <mxGeometry relative="1" as="geometry"/>
                </mxCell>
                <mxCell id="48K4u6aNwopw94cNcizG-135" value="No" style="edgeStyle=orthogonalEdgeStyle;shape=connector;rounded=1;sketch=1;html=1;labelBackgroundColor=default;fontFamily=Fira Code;fontSource=https%3A%2F%2Ffonts.googleapis.com%2Fcss%3Ffamily%3DFira%2BCode;fontSize=12;fontColor=default;endArrow=classic;strokeColor=default;" edge="1" parent="1" source="48K4u6aNwopw94cNcizG-128" target="48K4u6aNwopw94cNcizG-134">
                    <mxGeometry relative="1" as="geometry"/>
                </mxCell>
                <mxCell id="48K4u6aNwopw94cNcizG-128" value="has&lt;br&gt;data ?" style="rhombus;whiteSpace=wrap;html=1;fontFamily=Fira Code;rounded=1;sketch=1;fontSource=https%3A%2F%2Ffonts.googleapis.com%2Fcss%3Ffamily%3DFira%2BCode;" vertex="1" parent="1">
                    <mxGeometry x="2940" y="-1200" width="80" height="80" as="geometry"/>
                </mxCell>
                <mxCell id="48K4u6aNwopw94cNcizG-131" value="" style="edgeStyle=orthogonalEdgeStyle;shape=connector;rounded=1;sketch=1;html=1;labelBackgroundColor=default;fontFamily=Fira Code;fontSource=https%3A%2F%2Ffonts.googleapis.com%2Fcss%3Ffamily%3DFira%2BCode;fontSize=12;fontColor=default;endArrow=classic;strokeColor=default;" edge="1" parent="1" source="48K4u6aNwopw94cNcizG-130" target="48K4u6aNwopw94cNcizG-124">
                    <mxGeometry relative="1" as="geometry"/>
                </mxCell>
                <mxCell id="48K4u6aNwopw94cNcizG-130" value="update check turnover status = checking" style="text;html=1;strokeColor=none;fillColor=none;align=center;verticalAlign=middle;whiteSpace=wrap;rounded=0;sketch=1;fontFamily=Fira Code;fontSource=https%3A%2F%2Ffonts.googleapis.com%2Fcss%3Ffamily%3DFira%2BCode;fontSize=12;fontColor=default;" vertex="1" parent="1">
                    <mxGeometry x="3430" y="-1305" width="290" height="30" as="geometry"/>
                </mxCell>
                <mxCell id="48K4u6aNwopw94cNcizG-139" value="" style="edgeStyle=orthogonalEdgeStyle;shape=connector;rounded=1;sketch=1;html=1;labelBackgroundColor=default;fontFamily=Fira Code;fontSource=https%3A%2F%2Ffonts.googleapis.com%2Fcss%3Ffamily%3DFira%2BCode;fontSize=12;fontColor=default;endArrow=classic;strokeColor=default;" edge="1" parent="1" source="48K4u6aNwopw94cNcizG-132" target="48K4u6aNwopw94cNcizG-138">
                    <mxGeometry relative="1" as="geometry"/>
                </mxCell>
                <mxCell id="48K4u6aNwopw94cNcizG-132" value="send request to provider" style="whiteSpace=wrap;html=1;fontFamily=Fira Code;rounded=1;sketch=1;fontSource=https%3A%2F%2Ffonts.googleapis.com%2Fcss%3Ffamily%3DFira%2BCode;" vertex="1" parent="1">
                    <mxGeometry x="2920" y="-1075" width="120" height="60" as="geometry"/>
                </mxCell>
                <mxCell id="48K4u6aNwopw94cNcizG-137" value="working = false" style="edgeStyle=orthogonalEdgeStyle;shape=connector;rounded=1;sketch=1;html=1;labelBackgroundColor=default;fontFamily=Fira Code;fontSource=https%3A%2F%2Ffonts.googleapis.com%2Fcss%3Ffamily%3DFira%2BCode;fontSize=12;fontColor=default;endArrow=classic;strokeColor=default;" edge="1" parent="1" source="48K4u6aNwopw94cNcizG-134" target="48K4u6aNwopw94cNcizG-121">
                    <mxGeometry relative="1" as="geometry">
                        <Array as="points">
                            <mxPoint x="2830" y="-1410"/>
                        </Array>
                    </mxGeometry>
                </mxCell>
                <mxCell id="48K4u6aNwopw94cNcizG-134" value="sleep 5 second" style="whiteSpace=wrap;html=1;fontFamily=Fira Code;rounded=1;sketch=1;fontSource=https%3A%2F%2Ffonts.googleapis.com%2Fcss%3Ffamily%3DFira%2BCode;" vertex="1" parent="1">
                    <mxGeometry x="2770" y="-1190" width="120" height="60" as="geometry"/>
                </mxCell>
                <mxCell id="48K4u6aNwopw94cNcizG-141" value="" style="edgeStyle=orthogonalEdgeStyle;shape=connector;rounded=1;sketch=1;html=1;labelBackgroundColor=default;fontFamily=Fira Code;fontSource=https%3A%2F%2Ffonts.googleapis.com%2Fcss%3Ffamily%3DFira%2BCode;fontSize=12;fontColor=default;endArrow=classic;strokeColor=default;" edge="1" parent="1" source="48K4u6aNwopw94cNcizG-138" target="48K4u6aNwopw94cNcizG-140">
                    <mxGeometry relative="1" as="geometry"/>
                </mxCell>
                <mxCell id="48K4u6aNwopw94cNcizG-138" value="update turnover to deposit document" style="whiteSpace=wrap;html=1;fontFamily=Fira Code;rounded=1;sketch=1;fontSource=https%3A%2F%2Ffonts.googleapis.com%2Fcss%3Ffamily%3DFira%2BCode;" vertex="1" parent="1">
                    <mxGeometry x="2920" y="-965" width="120" height="60" as="geometry"/>
                </mxCell>
                <mxCell id="48K4u6aNwopw94cNcizG-143" value="" style="edgeStyle=orthogonalEdgeStyle;shape=connector;rounded=1;sketch=1;html=1;labelBackgroundColor=default;fontFamily=Fira Code;fontSource=https%3A%2F%2Ffonts.googleapis.com%2Fcss%3Ffamily%3DFira%2BCode;fontSize=12;fontColor=default;endArrow=classic;strokeColor=default;" edge="1" parent="1" source="48K4u6aNwopw94cNcizG-140" target="48K4u6aNwopw94cNcizG-142">
                    <mxGeometry relative="1" as="geometry"/>
                </mxCell>
                <mxCell id="48K4u6aNwopw94cNcizG-140" value="update turnover to member turnover" style="whiteSpace=wrap;html=1;fontFamily=Fira Code;rounded=1;sketch=1;fontSource=https%3A%2F%2Ffonts.googleapis.com%2Fcss%3Ffamily%3DFira%2BCode;" vertex="1" parent="1">
                    <mxGeometry x="2920" y="-845" width="120" height="60" as="geometry"/>
                </mxCell>
                <mxCell id="48K4u6aNwopw94cNcizG-146" value="recursive function&lt;br&gt;working again" style="edgeStyle=orthogonalEdgeStyle;shape=connector;rounded=1;sketch=1;html=1;labelBackgroundColor=default;fontFamily=Fira Code;fontSource=https%3A%2F%2Ffonts.googleapis.com%2Fcss%3Ffamily%3DFira%2BCode;fontSize=12;fontColor=default;endArrow=classic;strokeColor=default;" edge="1" parent="1" source="48K4u6aNwopw94cNcizG-142" target="48K4u6aNwopw94cNcizG-124">
                    <mxGeometry relative="1" as="geometry">
                        <mxPoint x="3180" y="-1259.9999999999998" as="targetPoint"/>
                    </mxGeometry>
                </mxCell>
                <mxCell id="48K4u6aNwopw94cNcizG-142" value="update deposit document check turnover status" style="whiteSpace=wrap;html=1;fontFamily=Fira Code;rounded=1;sketch=1;fontSource=https%3A%2F%2Ffonts.googleapis.com%2Fcss%3Ffamily%3DFira%2BCode;" vertex="1" parent="1">
                    <mxGeometry x="3170" y="-845" width="120" height="60" as="geometry"/>
                </mxCell>
                <mxCell id="48K4u6aNwopw94cNcizG-145" value="" style="edgeStyle=orthogonalEdgeStyle;shape=connector;rounded=1;sketch=1;html=1;labelBackgroundColor=default;fontFamily=Fira Code;fontSource=https%3A%2F%2Ffonts.googleapis.com%2Fcss%3Ffamily%3DFira%2BCode;fontSize=12;fontColor=default;endArrow=classic;strokeColor=default;" edge="1" parent="1" source="48K4u6aNwopw94cNcizG-144" target="48K4u6aNwopw94cNcizG-142">
                    <mxGeometry relative="1" as="geometry"/>
                </mxCell>
                <mxCell id="48K4u6aNwopw94cNcizG-144" value="update check turnover status = success" style="text;html=1;strokeColor=none;fillColor=none;align=center;verticalAlign=middle;whiteSpace=wrap;rounded=0;sketch=1;fontFamily=Fira Code;fontSource=https%3A%2F%2Ffonts.googleapis.com%2Fcss%3Ffamily%3DFira%2BCode;fontSize=12;fontColor=default;" vertex="1" parent="1">
                    <mxGeometry x="3330" y="-830" width="290" height="30" as="geometry"/>
                </mxCell>
                <mxCell id="KGCw-zE78uCEMOBGUyC1-24" value="" style="endArrow=none;dashed=1;html=1;dashPattern=1 3;strokeWidth=2;rounded=1;sketch=1;fontFamily=Fira Code;fontSource=https%3A%2F%2Ffonts.googleapis.com%2Fcss%3Ffamily%3DFira%2BCode;fontSize=12;fontColor=default;" edge="1" parent="1">
                    <mxGeometry width="50" height="50" relative="1" as="geometry">
                        <mxPoint x="3760" y="-890" as="sourcePoint"/>
                        <mxPoint x="3760" y="-1570" as="targetPoint"/>
                    </mxGeometry>
                </mxCell>
                <mxCell id="KGCw-zE78uCEMOBGUyC1-25" value="&lt;h1&gt;Auto Deposit Flow&lt;/h1&gt;&lt;p&gt;API CronJob for check bank transaction data and create auto deposit transaction&amp;nbsp;&lt;/p&gt;" style="text;html=1;strokeColor=none;fillColor=none;spacing=5;spacingTop=-20;whiteSpace=wrap;overflow=hidden;rounded=0;sketch=1;fontFamily=Fira Code;fontSource=https%3A%2F%2Ffonts.googleapis.com%2Fcss%3Ffamily%3DFira%2BCode;fontSize=12;fontColor=default;" vertex="1" parent="1">
                    <mxGeometry x="3800" y="-1550" width="350" height="100" as="geometry"/>
                </mxCell>
                <mxCell id="KGCw-zE78uCEMOBGUyC1-26" value="working = true" style="edgeStyle=orthogonalEdgeStyle;shape=connector;rounded=1;sketch=1;html=1;labelBackgroundColor=default;fontFamily=Fira Code;fontSource=https%3A%2F%2Ffonts.googleapis.com%2Fcss%3Ffamily%3DFira%2BCode;fontSize=12;fontColor=default;endArrow=classic;strokeColor=default;" edge="1" parent="1" source="KGCw-zE78uCEMOBGUyC1-27" target="KGCw-zE78uCEMOBGUyC1-29">
                    <mxGeometry relative="1" as="geometry"/>
                </mxCell>
                <mxCell id="KGCw-zE78uCEMOBGUyC1-27" value="start CronJob&lt;br&gt;every 5 second" style="rounded=1;whiteSpace=wrap;html=1;sketch=1;fontFamily=Fira Code;fontSource=https%3A%2F%2Ffonts.googleapis.com%2Fcss%3Ffamily%3DFira%2BCode;fontSize=12;fontColor=default;strokeColor=default;fillColor=default;" vertex="1" parent="1">
                    <mxGeometry x="4485" y="-1440" width="120" height="60" as="geometry"/>
                </mxCell>
                <mxCell id="KGCw-zE78uCEMOBGUyC1-28" value="" style="edgeStyle=orthogonalEdgeStyle;shape=connector;rounded=1;sketch=1;html=1;labelBackgroundColor=default;fontFamily=Fira Code;fontSource=https%3A%2F%2Ffonts.googleapis.com%2Fcss%3Ffamily%3DFira%2BCode;fontSize=12;fontColor=default;endArrow=classic;strokeColor=default;" edge="1" parent="1" source="KGCw-zE78uCEMOBGUyC1-29" target="KGCw-zE78uCEMOBGUyC1-31">
                    <mxGeometry relative="1" as="geometry"/>
                </mxCell>
                <mxCell id="KGCw-zE78uCEMOBGUyC1-39" style="edgeStyle=orthogonalEdgeStyle;shape=connector;rounded=1;sketch=1;html=1;labelBackgroundColor=default;fontFamily=Fira Code;fontSource=https%3A%2F%2Ffonts.googleapis.com%2Fcss%3Ffamily%3DFira%2BCode;fontSize=12;fontColor=default;endArrow=classic;strokeColor=default;verticalAlign=top;horizontal=1;" edge="1" parent="1" source="KGCw-zE78uCEMOBGUyC1-29" target="KGCw-zE78uCEMOBGUyC1-38">
                    <mxGeometry relative="1" as="geometry">
                        <Array as="points">
                            <mxPoint x="4545" y="-1240"/>
                            <mxPoint x="4755" y="-1240"/>
                        </Array>
                    </mxGeometry>
                </mxCell>
                <mxCell id="KGCw-zE78uCEMOBGUyC1-29" value="find bank in auto deposit" style="rounded=1;whiteSpace=wrap;html=1;sketch=1;fontFamily=Fira Code;fontSource=https%3A%2F%2Ffonts.googleapis.com%2Fcss%3Ffamily%3DFira%2BCode;fontSize=12;fontColor=default;strokeColor=default;fillColor=default;" vertex="1" parent="1">
                    <mxGeometry x="4485" y="-1320" width="120" height="60" as="geometry"/>
                </mxCell>
                <mxCell id="KGCw-zE78uCEMOBGUyC1-30" value="Yes" style="edgeStyle=orthogonalEdgeStyle;shape=connector;rounded=1;sketch=1;html=1;labelBackgroundColor=default;fontFamily=Fira Code;fontSource=https%3A%2F%2Ffonts.googleapis.com%2Fcss%3Ffamily%3DFira%2BCode;fontSize=12;fontColor=default;endArrow=classic;strokeColor=default;" edge="1" parent="1" source="KGCw-zE78uCEMOBGUyC1-31" target="KGCw-zE78uCEMOBGUyC1-37">
                    <mxGeometry relative="1" as="geometry">
                        <mxPoint x="4545" y="-1075.0000000000002" as="targetPoint"/>
                    </mxGeometry>
                </mxCell>
                <mxCell id="KGCw-zE78uCEMOBGUyC1-34" value="No" style="edgeStyle=orthogonalEdgeStyle;shape=connector;rounded=1;sketch=1;html=1;labelBackgroundColor=default;fontFamily=Fira Code;fontSource=https%3A%2F%2Ffonts.googleapis.com%2Fcss%3Ffamily%3DFira%2BCode;fontSize=12;fontColor=default;endArrow=classic;strokeColor=default;" edge="1" parent="1" source="KGCw-zE78uCEMOBGUyC1-31" target="KGCw-zE78uCEMOBGUyC1-33">
                    <mxGeometry relative="1" as="geometry"/>
                </mxCell>
                <mxCell id="KGCw-zE78uCEMOBGUyC1-31" value="has&lt;br&gt;data ?" style="rhombus;whiteSpace=wrap;html=1;fontFamily=Fira Code;rounded=1;sketch=1;fontSource=https%3A%2F%2Ffonts.googleapis.com%2Fcss%3Ffamily%3DFira%2BCode;" vertex="1" parent="1">
                    <mxGeometry x="4505" y="-1200" width="80" height="80" as="geometry"/>
                </mxCell>
                <mxCell id="KGCw-zE78uCEMOBGUyC1-32" value="working = false" style="edgeStyle=orthogonalEdgeStyle;shape=connector;rounded=1;sketch=1;html=1;labelBackgroundColor=default;fontFamily=Fira Code;fontSource=https%3A%2F%2Ffonts.googleapis.com%2Fcss%3Ffamily%3DFira%2BCode;fontSize=12;fontColor=default;endArrow=classic;strokeColor=default;" edge="1" parent="1" source="KGCw-zE78uCEMOBGUyC1-33" target="KGCw-zE78uCEMOBGUyC1-27">
                    <mxGeometry relative="1" as="geometry">
                        <Array as="points">
                            <mxPoint x="4395" y="-1410"/>
                        </Array>
                    </mxGeometry>
                </mxCell>
                <mxCell id="KGCw-zE78uCEMOBGUyC1-33" value="sleep 5 second" style="whiteSpace=wrap;html=1;fontFamily=Fira Code;rounded=1;sketch=1;fontSource=https%3A%2F%2Ffonts.googleapis.com%2Fcss%3Ffamily%3DFira%2BCode;" vertex="1" parent="1">
                    <mxGeometry x="4335" y="-1190" width="120" height="60" as="geometry"/>
                </mxCell>
                <mxCell id="KGCw-zE78uCEMOBGUyC1-36" value="" style="edgeStyle=orthogonalEdgeStyle;shape=connector;rounded=1;sketch=1;html=1;labelBackgroundColor=default;fontFamily=Fira Code;fontSource=https%3A%2F%2Ffonts.googleapis.com%2Fcss%3Ffamily%3DFira%2BCode;fontSize=12;fontColor=default;endArrow=classic;strokeColor=default;" edge="1" parent="1" source="KGCw-zE78uCEMOBGUyC1-35" target="KGCw-zE78uCEMOBGUyC1-29">
                    <mxGeometry relative="1" as="geometry"/>
                </mxCell>
                <mxCell id="KGCw-zE78uCEMOBGUyC1-35" value="auto deposit = true" style="text;html=1;strokeColor=none;fillColor=none;align=center;verticalAlign=middle;whiteSpace=wrap;rounded=0;sketch=1;fontFamily=Fira Code;fontSource=https%3A%2F%2Ffonts.googleapis.com%2Fcss%3Ffamily%3DFira%2BCode;fontSize=12;fontColor=default;" vertex="1" parent="1">
                    <mxGeometry x="4705" y="-1306" width="140" height="30" as="geometry"/>
                </mxCell>
                <mxCell id="KGCw-zE78uCEMOBGUyC1-45" value="" style="edgeStyle=orthogonalEdgeStyle;shape=connector;rounded=1;sketch=1;html=1;labelBackgroundColor=default;fontFamily=Fira Code;fontSource=https%3A%2F%2Ffonts.googleapis.com%2Fcss%3Ffamily%3DFira%2BCode;fontSize=12;fontColor=default;endArrow=classic;strokeColor=default;" edge="1" parent="1" source="KGCw-zE78uCEMOBGUyC1-37" target="KGCw-zE78uCEMOBGUyC1-44">
                    <mxGeometry relative="1" as="geometry"/>
                </mxCell>
                <mxCell id="KGCw-zE78uCEMOBGUyC1-37" value="find &amp;amp; update bank transaction" style="rounded=1;whiteSpace=wrap;html=1;sketch=1;fontFamily=Fira Code;fontSource=https%3A%2F%2Ffonts.googleapis.com%2Fcss%3Ffamily%3DFira%2BCode;fontSize=12;fontColor=default;strokeColor=default;fillColor=default;" vertex="1" parent="1">
                    <mxGeometry x="4485" y="-1075" width="120" height="60" as="geometry"/>
                </mxCell>
                <mxCell id="KGCw-zE78uCEMOBGUyC1-40" value="" style="edgeStyle=orthogonalEdgeStyle;shape=connector;rounded=1;sketch=1;html=1;labelBackgroundColor=default;fontFamily=Fira Code;fontSource=https%3A%2F%2Ffonts.googleapis.com%2Fcss%3Ffamily%3DFira%2BCode;fontSize=12;fontColor=default;endArrow=classic;strokeColor=default;" edge="1" parent="1" source="KGCw-zE78uCEMOBGUyC1-38" target="KGCw-zE78uCEMOBGUyC1-37">
                    <mxGeometry relative="1" as="geometry"/>
                </mxCell>
                <mxCell id="KGCw-zE78uCEMOBGUyC1-38" value="bank in auto deposit&lt;br&gt;&amp;amp;&lt;br&gt;auto deposit status = new" style="text;html=1;strokeColor=none;fillColor=none;align=center;verticalAlign=middle;whiteSpace=wrap;rounded=0;sketch=1;fontFamily=Fira Code;fontSource=https%3A%2F%2Ffonts.googleapis.com%2Fcss%3Ffamily%3DFira%2BCode;fontSize=12;fontColor=default;" vertex="1" parent="1">
                    <mxGeometry x="4655" y="-1060" width="200" height="30" as="geometry"/>
                </mxCell>
                <mxCell id="KGCw-zE78uCEMOBGUyC1-42" value="" style="edgeStyle=orthogonalEdgeStyle;shape=connector;rounded=1;sketch=1;html=1;labelBackgroundColor=default;fontFamily=Fira Code;fontSource=https%3A%2F%2Ffonts.googleapis.com%2Fcss%3Ffamily%3DFira%2BCode;fontSize=12;fontColor=default;endArrow=classic;strokeColor=default;" edge="1" parent="1" source="KGCw-zE78uCEMOBGUyC1-41" target="KGCw-zE78uCEMOBGUyC1-38">
                    <mxGeometry relative="1" as="geometry"/>
                </mxCell>
                <mxCell id="KGCw-zE78uCEMOBGUyC1-41" value="update auto deposit status = working" style="text;html=1;strokeColor=none;fillColor=none;align=center;verticalAlign=middle;whiteSpace=wrap;rounded=0;sketch=1;fontFamily=Fira Code;fontSource=https%3A%2F%2Ffonts.googleapis.com%2Fcss%3Ffamily%3DFira%2BCode;fontSize=12;fontColor=default;" vertex="1" parent="1">
                    <mxGeometry x="4915" y="-1060" width="280" height="30" as="geometry"/>
                </mxCell>
                <mxCell id="KGCw-zE78uCEMOBGUyC1-63" value="" style="edgeStyle=orthogonalEdgeStyle;shape=connector;rounded=1;sketch=1;html=1;labelBackgroundColor=default;fontFamily=Fira Code;fontSource=https%3A%2F%2Ffonts.googleapis.com%2Fcss%3Ffamily%3DFira%2BCode;fontSize=12;fontColor=default;endArrow=classic;strokeColor=default;" edge="1" parent="1" source="KGCw-zE78uCEMOBGUyC1-44" target="KGCw-zE78uCEMOBGUyC1-62">
                    <mxGeometry relative="1" as="geometry"/>
                </mxCell>
                <mxCell id="KGCw-zE78uCEMOBGUyC1-44" value="verify data by each bank" style="rounded=1;whiteSpace=wrap;html=1;sketch=1;fontFamily=Fira Code;fontSource=https%3A%2F%2Ffonts.googleapis.com%2Fcss%3Ffamily%3DFira%2BCode;fontSize=12;fontColor=default;strokeColor=default;fillColor=default;" vertex="1" parent="1">
                    <mxGeometry x="4485" y="-960" width="120" height="60" as="geometry"/>
                </mxCell>
                <mxCell id="KGCw-zE78uCEMOBGUyC1-55" value="" style="edgeStyle=orthogonalEdgeStyle;shape=connector;rounded=1;sketch=1;html=1;labelBackgroundColor=default;fontFamily=Fira Code;fontSource=https%3A%2F%2Ffonts.googleapis.com%2Fcss%3Ffamily%3DFira%2BCode;fontSize=12;fontColor=default;endArrow=classic;strokeColor=default;" edge="1" parent="1" source="KGCw-zE78uCEMOBGUyC1-56" target="KGCw-zE78uCEMOBGUyC1-58">
                    <mxGeometry relative="1" as="geometry"/>
                </mxCell>
                <mxCell id="KGCw-zE78uCEMOBGUyC1-56" value="matching verify data with member bank account" style="rounded=1;whiteSpace=wrap;html=1;sketch=1;fontFamily=Fira Code;fontSource=https%3A%2F%2Ffonts.googleapis.com%2Fcss%3Ffamily%3DFira%2BCode;fontSize=12;fontColor=default;strokeColor=default;fillColor=default;" vertex="1" parent="1">
                    <mxGeometry x="4485" y="-680" width="120" height="60" as="geometry"/>
                </mxCell>
                <mxCell id="KGCw-zE78uCEMOBGUyC1-57" value="Yes" style="edgeStyle=orthogonalEdgeStyle;shape=connector;rounded=1;sketch=1;html=1;labelBackgroundColor=default;fontFamily=Fira Code;fontSource=https%3A%2F%2Ffonts.googleapis.com%2Fcss%3Ffamily%3DFira%2BCode;fontSize=12;fontColor=default;endArrow=classic;strokeColor=default;" edge="1" parent="1" source="KGCw-zE78uCEMOBGUyC1-58" target="KGCw-zE78uCEMOBGUyC1-60">
                    <mxGeometry relative="1" as="geometry"/>
                </mxCell>
                <mxCell id="KGCw-zE78uCEMOBGUyC1-89" value="No" style="edgeStyle=orthogonalEdgeStyle;shape=connector;rounded=1;sketch=1;html=1;labelBackgroundColor=default;fontFamily=Fira Code;fontSource=https%3A%2F%2Ffonts.googleapis.com%2Fcss%3Ffamily%3DFira%2BCode;fontSize=12;fontColor=default;endArrow=classic;strokeColor=default;" edge="1" parent="1" source="KGCw-zE78uCEMOBGUyC1-58" target="KGCw-zE78uCEMOBGUyC1-88">
                    <mxGeometry relative="1" as="geometry"/>
                </mxCell>
                <mxCell id="KGCw-zE78uCEMOBGUyC1-58" value="match ?" style="rhombus;whiteSpace=wrap;html=1;fontFamily=Fira Code;rounded=1;sketch=1;fontSource=https%3A%2F%2Ffonts.googleapis.com%2Fcss%3Ffamily%3DFira%2BCode;" vertex="1" parent="1">
                    <mxGeometry x="4505" y="-550" width="80" height="80" as="geometry"/>
                </mxCell>
                <mxCell id="KGCw-zE78uCEMOBGUyC1-59" value="Yes" style="edgeStyle=orthogonalEdgeStyle;shape=connector;rounded=1;sketch=1;html=1;labelBackgroundColor=default;fontFamily=Fira Code;fontSource=https%3A%2F%2Ffonts.googleapis.com%2Fcss%3Ffamily%3DFira%2BCode;fontSize=12;fontColor=default;endArrow=classic;strokeColor=default;" edge="1" parent="1" source="KGCw-zE78uCEMOBGUyC1-60" target="KGCw-zE78uCEMOBGUyC1-61">
                    <mxGeometry relative="1" as="geometry"/>
                </mxCell>
                <mxCell id="KGCw-zE78uCEMOBGUyC1-87" value="No" style="edgeStyle=orthogonalEdgeStyle;shape=connector;rounded=1;sketch=1;html=1;labelBackgroundColor=default;fontFamily=Fira Code;fontSource=https%3A%2F%2Ffonts.googleapis.com%2Fcss%3Ffamily%3DFira%2BCode;fontSize=12;fontColor=default;endArrow=classic;strokeColor=default;" edge="1" parent="1" source="KGCw-zE78uCEMOBGUyC1-60" target="KGCw-zE78uCEMOBGUyC1-83">
                    <mxGeometry relative="1" as="geometry"/>
                </mxCell>
                <mxCell id="KGCw-zE78uCEMOBGUyC1-60" value="= 1 bank account ?" style="rhombus;whiteSpace=wrap;html=1;fontFamily=Fira Code;rounded=1;sketch=1;fontSource=https%3A%2F%2Ffonts.googleapis.com%2Fcss%3Ffamily%3DFira%2BCode;" vertex="1" parent="1">
                    <mxGeometry x="4505" y="-390" width="80" height="80" as="geometry"/>
                </mxCell>
                <mxCell id="KGCw-zE78uCEMOBGUyC1-98" value="" style="edgeStyle=orthogonalEdgeStyle;shape=connector;rounded=1;sketch=1;html=1;labelBackgroundColor=default;fontFamily=Fira Code;fontSource=https%3A%2F%2Ffonts.googleapis.com%2Fcss%3Ffamily%3DFira%2BCode;fontSize=12;fontColor=default;endArrow=classic;strokeColor=default;" edge="1" parent="1" source="KGCw-zE78uCEMOBGUyC1-61" target="KGCw-zE78uCEMOBGUyC1-97">
                    <mxGeometry relative="1" as="geometry"/>
                </mxCell>
                <mxCell id="KGCw-zE78uCEMOBGUyC1-61" value="update matching user data" style="whiteSpace=wrap;html=1;fontFamily=Fira Code;rounded=1;sketch=1;fontSource=https%3A%2F%2Ffonts.googleapis.com%2Fcss%3Ffamily%3DFira%2BCode;" vertex="1" parent="1">
                    <mxGeometry x="4485" y="-120" width="120" height="60" as="geometry"/>
                </mxCell>
                <mxCell id="KGCw-zE78uCEMOBGUyC1-64" value="" style="edgeStyle=orthogonalEdgeStyle;shape=connector;rounded=1;sketch=1;html=1;labelBackgroundColor=default;fontFamily=Fira Code;fontSource=https%3A%2F%2Ffonts.googleapis.com%2Fcss%3Ffamily%3DFira%2BCode;fontSize=12;fontColor=default;endArrow=classic;strokeColor=default;" edge="1" parent="1" source="KGCw-zE78uCEMOBGUyC1-62" target="KGCw-zE78uCEMOBGUyC1-56">
                    <mxGeometry relative="1" as="geometry"/>
                </mxCell>
                <mxCell id="KGCw-zE78uCEMOBGUyC1-62" value="create auto deposit document" style="rounded=1;whiteSpace=wrap;html=1;sketch=1;fontFamily=Fira Code;fontSource=https%3A%2F%2Ffonts.googleapis.com%2Fcss%3Ffamily%3DFira%2BCode;fontSize=12;fontColor=default;strokeColor=default;fillColor=default;" vertex="1" parent="1">
                    <mxGeometry x="4485" y="-820" width="120" height="60" as="geometry"/>
                </mxCell>
                <mxCell id="KGCw-zE78uCEMOBGUyC1-66" style="edgeStyle=orthogonalEdgeStyle;shape=connector;rounded=1;sketch=1;html=1;labelBackgroundColor=default;fontFamily=Fira Code;fontSource=https%3A%2F%2Ffonts.googleapis.com%2Fcss%3Ffamily%3DFira%2BCode;fontSize=12;fontColor=default;endArrow=classic;strokeColor=default;" edge="1" parent="1" source="KGCw-zE78uCEMOBGUyC1-65" target="KGCw-zE78uCEMOBGUyC1-62">
                    <mxGeometry relative="1" as="geometry"/>
                </mxCell>
                <mxCell id="KGCw-zE78uCEMOBGUyC1-65" value="status = pending" style="text;html=1;strokeColor=none;fillColor=none;align=center;verticalAlign=middle;whiteSpace=wrap;rounded=0;sketch=1;fontFamily=Fira Code;fontSource=https%3A%2F%2Ffonts.googleapis.com%2Fcss%3Ffamily%3DFira%2BCode;fontSize=12;fontColor=default;" vertex="1" parent="1">
                    <mxGeometry x="4680" y="-805" width="190" height="30" as="geometry"/>
                </mxCell>
                <mxCell id="KGCw-zE78uCEMOBGUyC1-68" value="" style="edgeStyle=orthogonalEdgeStyle;shape=connector;rounded=1;sketch=1;html=1;labelBackgroundColor=default;fontFamily=Fira Code;fontSource=https%3A%2F%2Ffonts.googleapis.com%2Fcss%3Ffamily%3DFira%2BCode;fontSize=12;fontColor=default;endArrow=classic;strokeColor=default;" edge="1" parent="1" source="KGCw-zE78uCEMOBGUyC1-67" target="KGCw-zE78uCEMOBGUyC1-61">
                    <mxGeometry relative="1" as="geometry"/>
                </mxCell>
                <mxCell id="KGCw-zE78uCEMOBGUyC1-67" value="status = matching" style="text;html=1;strokeColor=none;fillColor=none;align=center;verticalAlign=middle;whiteSpace=wrap;rounded=0;sketch=1;fontFamily=Fira Code;fontSource=https%3A%2F%2Ffonts.googleapis.com%2Fcss%3Ffamily%3DFira%2BCode;fontSize=12;fontColor=default;" vertex="1" parent="1">
                    <mxGeometry x="4680" y="-105" width="190" height="30" as="geometry"/>
                </mxCell>
                <mxCell id="KGCw-zE78uCEMOBGUyC1-69" value="" style="edgeStyle=orthogonalEdgeStyle;shape=connector;rounded=1;sketch=1;html=1;labelBackgroundColor=default;fontFamily=Fira Code;fontSource=https%3A%2F%2Ffonts.googleapis.com%2Fcss%3Ffamily%3DFira%2BCode;fontSize=12;fontColor=default;endArrow=classic;strokeColor=default;" edge="1" parent="1" source="KGCw-zE78uCEMOBGUyC1-70" target="KGCw-zE78uCEMOBGUyC1-71">
                    <mxGeometry relative="1" as="geometry"/>
                </mxCell>
                <mxCell id="KGCw-zE78uCEMOBGUyC1-70" value="Deposit to provider" style="whiteSpace=wrap;html=1;fontFamily=Fira Code;rounded=1;sketch=1;fontSource=https%3A%2F%2Ffonts.googleapis.com%2Fcss%3Ffamily%3DFira%2BCode;" vertex="1" parent="1">
                    <mxGeometry x="4000" y="-120" width="120" height="60" as="geometry"/>
                </mxCell>
                <mxCell id="KGCw-zE78uCEMOBGUyC1-80" style="edgeStyle=orthogonalEdgeStyle;shape=connector;rounded=1;sketch=1;html=1;labelBackgroundColor=default;fontFamily=Fira Code;fontSource=https%3A%2F%2Ffonts.googleapis.com%2Fcss%3Ffamily%3DFira%2BCode;fontSize=12;fontColor=default;endArrow=classic;strokeColor=default;" edge="1" parent="1" source="KGCw-zE78uCEMOBGUyC1-71" target="KGCw-zE78uCEMOBGUyC1-78">
                    <mxGeometry relative="1" as="geometry">
                        <Array as="points">
                            <mxPoint x="4066" y="-260"/>
                            <mxPoint x="4066" y="-260"/>
                        </Array>
                    </mxGeometry>
                </mxCell>
                <mxCell id="KGCw-zE78uCEMOBGUyC1-71" value="update status check turnover last record" style="whiteSpace=wrap;html=1;fontFamily=Fira Code;rounded=1;sketch=1;fontSource=https%3A%2F%2Ffonts.googleapis.com%2Fcss%3Ffamily%3DFira%2BCode;" vertex="1" parent="1">
                    <mxGeometry x="4000" y="-260" width="120" height="60" as="geometry"/>
                </mxCell>
                <mxCell id="KGCw-zE78uCEMOBGUyC1-74" style="edgeStyle=orthogonalEdgeStyle;shape=connector;rounded=1;sketch=1;html=1;labelBackgroundColor=default;fontFamily=Fira Code;fontSource=https%3A%2F%2Ffonts.googleapis.com%2Fcss%3Ffamily%3DFira%2BCode;fontSize=12;fontColor=default;endArrow=classic;strokeColor=default;" edge="1" parent="1" source="KGCw-zE78uCEMOBGUyC1-73" target="48K4u6aNwopw94cNcizG-107">
                    <mxGeometry relative="1" as="geometry"/>
                </mxCell>
                <mxCell id="KGCw-zE78uCEMOBGUyC1-73" value="status = success,reject" style="text;html=1;strokeColor=none;fillColor=none;align=center;verticalAlign=middle;whiteSpace=wrap;rounded=0;sketch=1;fontFamily=Fira Code;fontSource=https%3A%2F%2Ffonts.googleapis.com%2Fcss%3Ffamily%3DFira%2BCode;fontSize=12;fontColor=default;" vertex="1" parent="1">
                    <mxGeometry x="2520" y="-505" width="190" height="30" as="geometry"/>
                </mxCell>
                <mxCell id="KGCw-zE78uCEMOBGUyC1-85" value="" style="edgeStyle=orthogonalEdgeStyle;shape=connector;rounded=1;sketch=1;html=1;labelBackgroundColor=default;fontFamily=Fira Code;fontSource=https%3A%2F%2Ffonts.googleapis.com%2Fcss%3Ffamily%3DFira%2BCode;fontSize=12;fontColor=default;endArrow=classic;strokeColor=default;" edge="1" parent="1" source="KGCw-zE78uCEMOBGUyC1-75" target="KGCw-zE78uCEMOBGUyC1-78">
                    <mxGeometry relative="1" as="geometry"/>
                </mxCell>
                <mxCell id="KGCw-zE78uCEMOBGUyC1-75" value="status = success" style="text;html=1;strokeColor=none;fillColor=none;align=center;verticalAlign=middle;whiteSpace=wrap;rounded=0;sketch=1;fontFamily=Fira Code;fontSource=https%3A%2F%2Ffonts.googleapis.com%2Fcss%3Ffamily%3DFira%2BCode;fontSize=12;fontColor=default;" vertex="1" parent="1">
                    <mxGeometry x="3770" y="-335" width="190" height="30" as="geometry"/>
                </mxCell>
                <mxCell id="KGCw-zE78uCEMOBGUyC1-93" style="edgeStyle=orthogonalEdgeStyle;shape=connector;rounded=1;sketch=1;html=1;labelBackgroundColor=default;fontFamily=Fira Code;fontSource=https%3A%2F%2Ffonts.googleapis.com%2Fcss%3Ffamily%3DFira%2BCode;fontSize=12;fontColor=default;endArrow=classic;strokeColor=default;" edge="1" parent="1" source="KGCw-zE78uCEMOBGUyC1-78" target="KGCw-zE78uCEMOBGUyC1-92">
                    <mxGeometry relative="1" as="geometry"/>
                </mxCell>
                <mxCell id="KGCw-zE78uCEMOBGUyC1-78" value="Update deposit document" style="rounded=1;whiteSpace=wrap;html=1;sketch=1;fontFamily=Fira Code;fontSource=https%3A%2F%2Ffonts.googleapis.com%2Fcss%3Ffamily%3DFira%2BCode;fontSize=12;fontColor=default;strokeColor=default;fillColor=default;" vertex="1" parent="1">
                    <mxGeometry x="4006" y="-350" width="120" height="60" as="geometry"/>
                </mxCell>
                <mxCell id="KGCw-zE78uCEMOBGUyC1-86" value="" style="edgeStyle=orthogonalEdgeStyle;shape=connector;rounded=1;sketch=1;html=1;labelBackgroundColor=default;fontFamily=Fira Code;fontSource=https%3A%2F%2Ffonts.googleapis.com%2Fcss%3Ffamily%3DFira%2BCode;fontSize=12;fontColor=default;endArrow=classic;strokeColor=default;" edge="1" parent="1" source="KGCw-zE78uCEMOBGUyC1-82" target="KGCw-zE78uCEMOBGUyC1-83">
                    <mxGeometry relative="1" as="geometry"/>
                </mxCell>
                <mxCell id="KGCw-zE78uCEMOBGUyC1-82" value="status = duplicate matching" style="text;html=1;strokeColor=none;fillColor=none;align=center;verticalAlign=middle;whiteSpace=wrap;rounded=0;sketch=1;fontFamily=Fira Code;fontSource=https%3A%2F%2Ffonts.googleapis.com%2Fcss%3Ffamily%3DFira%2BCode;fontSize=12;fontColor=default;" vertex="1" parent="1">
                    <mxGeometry x="4230" y="-290" width="205" height="30" as="geometry"/>
                </mxCell>
                <mxCell id="KGCw-zE78uCEMOBGUyC1-94" style="edgeStyle=orthogonalEdgeStyle;shape=connector;rounded=1;sketch=1;html=1;labelBackgroundColor=default;fontFamily=Fira Code;fontSource=https%3A%2F%2Ffonts.googleapis.com%2Fcss%3Ffamily%3DFira%2BCode;fontSize=12;fontColor=default;endArrow=classic;strokeColor=default;" edge="1" parent="1" source="KGCw-zE78uCEMOBGUyC1-83" target="KGCw-zE78uCEMOBGUyC1-92">
                    <mxGeometry relative="1" as="geometry">
                        <Array as="points">
                            <mxPoint x="4190" y="-350"/>
                            <mxPoint x="4190" y="-420"/>
                        </Array>
                    </mxGeometry>
                </mxCell>
                <mxCell id="KGCw-zE78uCEMOBGUyC1-83" value="Update deposit document" style="rounded=1;whiteSpace=wrap;html=1;sketch=1;fontFamily=Fira Code;fontSource=https%3A%2F%2Ffonts.googleapis.com%2Fcss%3Ffamily%3DFira%2BCode;fontSize=12;fontColor=default;strokeColor=default;fillColor=default;" vertex="1" parent="1">
                    <mxGeometry x="4272.5" y="-380" width="120" height="60" as="geometry"/>
                </mxCell>
                <mxCell id="KGCw-zE78uCEMOBGUyC1-95" style="edgeStyle=orthogonalEdgeStyle;shape=connector;rounded=1;sketch=1;html=1;labelBackgroundColor=default;fontFamily=Fira Code;fontSource=https%3A%2F%2Ffonts.googleapis.com%2Fcss%3Ffamily%3DFira%2BCode;fontSize=12;fontColor=default;endArrow=classic;strokeColor=default;" edge="1" parent="1" source="KGCw-zE78uCEMOBGUyC1-88" target="KGCw-zE78uCEMOBGUyC1-92">
                    <mxGeometry relative="1" as="geometry"/>
                </mxCell>
                <mxCell id="KGCw-zE78uCEMOBGUyC1-88" value="Update deposit document" style="rounded=1;whiteSpace=wrap;html=1;sketch=1;fontFamily=Fira Code;fontSource=https%3A%2F%2Ffonts.googleapis.com%2Fcss%3Ffamily%3DFira%2BCode;fontSize=12;fontColor=default;strokeColor=default;fillColor=default;" vertex="1" parent="1">
                    <mxGeometry x="4272.5" y="-540" width="120" height="60" as="geometry"/>
                </mxCell>
                <mxCell id="KGCw-zE78uCEMOBGUyC1-91" value="" style="edgeStyle=orthogonalEdgeStyle;shape=connector;rounded=1;sketch=1;html=1;labelBackgroundColor=default;fontFamily=Fira Code;fontSource=https%3A%2F%2Ffonts.googleapis.com%2Fcss%3Ffamily%3DFira%2BCode;fontSize=12;fontColor=default;endArrow=classic;strokeColor=default;" edge="1" parent="1" source="KGCw-zE78uCEMOBGUyC1-90" target="KGCw-zE78uCEMOBGUyC1-88">
                    <mxGeometry relative="1" as="geometry"/>
                </mxCell>
                <mxCell id="KGCw-zE78uCEMOBGUyC1-90" value="status = not matching" style="text;html=1;strokeColor=none;fillColor=none;align=center;verticalAlign=middle;whiteSpace=wrap;rounded=0;sketch=1;fontFamily=Fira Code;fontSource=https%3A%2F%2Ffonts.googleapis.com%2Fcss%3Ffamily%3DFira%2BCode;fontSize=12;fontColor=default;" vertex="1" parent="1">
                    <mxGeometry x="4230" y="-440" width="205" height="30" as="geometry"/>
                </mxCell>
                <mxCell id="KGCw-zE78uCEMOBGUyC1-96" value="Recursive function" style="edgeStyle=orthogonalEdgeStyle;shape=connector;rounded=1;sketch=1;html=1;labelBackgroundColor=default;fontFamily=Fira Code;fontSource=https%3A%2F%2Ffonts.googleapis.com%2Fcss%3Ffamily%3DFira%2BCode;fontSize=12;fontColor=default;endArrow=classic;strokeColor=default;" edge="1" parent="1" source="KGCw-zE78uCEMOBGUyC1-92" target="KGCw-zE78uCEMOBGUyC1-29">
                    <mxGeometry relative="1" as="geometry">
                        <Array as="points">
                            <mxPoint x="4020" y="-425"/>
                            <mxPoint x="4020" y="-1290"/>
                        </Array>
                    </mxGeometry>
                </mxCell>
                <mxCell id="KGCw-zE78uCEMOBGUyC1-92" value="" style="verticalLabelPosition=bottom;verticalAlign=top;html=1;shape=mxgraph.flowchart.on-page_reference;rounded=1;sketch=1;fontFamily=Fira Code;fontSource=https%3A%2F%2Ffonts.googleapis.com%2Fcss%3Ffamily%3DFira%2BCode;fontSize=12;fontColor=default;strokeColor=default;fillColor=default;" vertex="1" parent="1">
                    <mxGeometry x="4036" y="-455" width="60" height="60" as="geometry"/>
                </mxCell>
                <mxCell id="KGCw-zE78uCEMOBGUyC1-99" value="No" style="edgeStyle=orthogonalEdgeStyle;shape=connector;rounded=1;sketch=1;html=1;labelBackgroundColor=default;fontFamily=Fira Code;fontSource=https%3A%2F%2Ffonts.googleapis.com%2Fcss%3Ffamily%3DFira%2BCode;fontSize=12;fontColor=default;endArrow=classic;strokeColor=default;" edge="1" parent="1" source="KGCw-zE78uCEMOBGUyC1-97" target="KGCw-zE78uCEMOBGUyC1-70">
                    <mxGeometry relative="1" as="geometry"/>
                </mxCell>
                <mxCell id="KGCw-zE78uCEMOBGUyC1-102" value="Yes" style="edgeStyle=orthogonalEdgeStyle;shape=connector;rounded=1;sketch=1;html=1;labelBackgroundColor=default;fontFamily=Fira Code;fontSource=https%3A%2F%2Ffonts.googleapis.com%2Fcss%3Ffamily%3DFira%2BCode;fontSize=12;fontColor=default;endArrow=classic;strokeColor=default;" edge="1" parent="1" source="KGCw-zE78uCEMOBGUyC1-97" target="KGCw-zE78uCEMOBGUyC1-101">
                    <mxGeometry relative="1" as="geometry"/>
                </mxCell>
                <mxCell id="KGCw-zE78uCEMOBGUyC1-97" value="check manual ?" style="rhombus;whiteSpace=wrap;html=1;fontFamily=Fira Code;rounded=1;sketch=1;fontSource=https%3A%2F%2Ffonts.googleapis.com%2Fcss%3Ffamily%3DFira%2BCode;" vertex="1" parent="1">
                    <mxGeometry x="4292.5" y="-130" width="80" height="80" as="geometry"/>
                </mxCell>
                <mxCell id="KGCw-zE78uCEMOBGUyC1-105" style="edgeStyle=orthogonalEdgeStyle;shape=connector;rounded=1;sketch=1;html=1;labelBackgroundColor=default;fontFamily=Fira Code;fontSource=https%3A%2F%2Ffonts.googleapis.com%2Fcss%3Ffamily%3DFira%2BCode;fontSize=12;fontColor=default;endArrow=classic;strokeColor=default;" edge="1" parent="1" source="KGCw-zE78uCEMOBGUyC1-101" target="KGCw-zE78uCEMOBGUyC1-92">
                    <mxGeometry relative="1" as="geometry">
                        <Array as="points">
                            <mxPoint x="4160" y="-210"/>
                            <mxPoint x="4160" y="-425"/>
                        </Array>
                    </mxGeometry>
                </mxCell>
                <mxCell id="KGCw-zE78uCEMOBGUyC1-101" value="Update deposit document" style="rounded=1;whiteSpace=wrap;html=1;sketch=1;fontFamily=Fira Code;fontSource=https%3A%2F%2Ffonts.googleapis.com%2Fcss%3Ffamily%3DFira%2BCode;fontSize=12;fontColor=default;strokeColor=default;fillColor=default;" vertex="1" parent="1">
                    <mxGeometry x="4272.5" y="-240" width="120" height="60" as="geometry"/>
                </mxCell>
                <mxCell id="KGCw-zE78uCEMOBGUyC1-104" style="edgeStyle=orthogonalEdgeStyle;shape=connector;rounded=1;sketch=1;html=1;labelBackgroundColor=default;fontFamily=Fira Code;fontSource=https%3A%2F%2Ffonts.googleapis.com%2Fcss%3Ffamily%3DFira%2BCode;fontSize=12;fontColor=default;endArrow=classic;strokeColor=default;" edge="1" parent="1" source="KGCw-zE78uCEMOBGUyC1-103" target="KGCw-zE78uCEMOBGUyC1-101">
                    <mxGeometry relative="1" as="geometry"/>
                </mxCell>
                <mxCell id="KGCw-zE78uCEMOBGUyC1-103" value="status = duplicate manual" style="text;html=1;strokeColor=none;fillColor=none;align=center;verticalAlign=middle;whiteSpace=wrap;rounded=0;sketch=1;fontFamily=Fira Code;fontSource=https%3A%2F%2Ffonts.googleapis.com%2Fcss%3Ffamily%3DFira%2BCode;fontSize=12;fontColor=default;" vertex="1" parent="1">
                    <mxGeometry x="4087.5" y="-170" width="205" height="30" as="geometry"/>
                </mxCell>
            </root>
        </mxGraphModel>
    </diagram>
    <diagram id="EsraWecjQ9qKYaq6pqZR" name="Withdraw">
        <mxGraphModel dx="2748" dy="3218" grid="1" gridSize="10" guides="1" tooltips="1" connect="1" arrows="1" fold="1" page="1" pageScale="1" pageWidth="2336" pageHeight="1654" math="0" shadow="0">
            <root>
                <mxCell id="RE9-uMMAI3yuZbyroZ7X-0"/>
                <mxCell id="RE9-uMMAI3yuZbyroZ7X-1" parent="RE9-uMMAI3yuZbyroZ7X-0"/>
                <mxCell id="XLfQI3qNwgboP4kxltUH-0" style="edgeStyle=none;rounded=1;sketch=1;html=1;fontFamily=Fira Code;fontSource=https%3A%2F%2Ffonts.googleapis.com%2Fcss%3Ffamily%3DFira%2BCode;fontSize=12;fontColor=default;" edge="1" parent="RE9-uMMAI3yuZbyroZ7X-1" source="XLfQI3qNwgboP4kxltUH-1" target="XLfQI3qNwgboP4kxltUH-2">
                    <mxGeometry relative="1" as="geometry"/>
                </mxCell>
                <mxCell id="XLfQI3qNwgboP4kxltUH-52" value="" style="edgeStyle=orthogonalEdgeStyle;shape=connector;rounded=1;sketch=1;html=1;labelBackgroundColor=default;fontFamily=Fira Code;fontSource=https%3A%2F%2Ffonts.googleapis.com%2Fcss%3Ffamily%3DFira%2BCode;fontSize=12;fontColor=default;endArrow=classic;strokeColor=default;" edge="1" parent="RE9-uMMAI3yuZbyroZ7X-1" source="XLfQI3qNwgboP4kxltUH-1" target="XLfQI3qNwgboP4kxltUH-51">
                    <mxGeometry relative="1" as="geometry"/>
                </mxCell>
                <mxCell id="XLfQI3qNwgboP4kxltUH-1" value="Create Withdraw" style="whiteSpace=wrap;html=1;verticalAlign=middle;rounded=1;sketch=1;fontSize=12;fontFamily=Fira Code;fontSource=https%3A%2F%2Ffonts.googleapis.com%2Fcss%3Ffamily%3DFira%2BCode;" vertex="1" parent="RE9-uMMAI3yuZbyroZ7X-1">
                    <mxGeometry x="285" y="-1040" width="120" height="60" as="geometry"/>
                </mxCell>
                <mxCell id="XLfQI3qNwgboP4kxltUH-2" value="withdraw" style="shape=cylinder3;whiteSpace=wrap;html=1;boundedLbl=1;backgroundOutline=1;size=15;rounded=1;sketch=1;fontFamily=Fira Code;fontSource=https%3A%2F%2Ffonts.googleapis.com%2Fcss%3Ffamily%3DFira%2BCode;fontSize=12;fontColor=default;strokeColor=default;fillColor=default;" vertex="1" parent="RE9-uMMAI3yuZbyroZ7X-1">
                    <mxGeometry x="490" y="-1050" width="60" height="80" as="geometry"/>
                </mxCell>
                <mxCell id="XLfQI3qNwgboP4kxltUH-3" style="edgeStyle=none;rounded=1;sketch=1;html=1;fontFamily=Fira Code;fontSource=https%3A%2F%2Ffonts.googleapis.com%2Fcss%3Ffamily%3DFira%2BCode;fontSize=12;fontColor=default;" edge="1" parent="RE9-uMMAI3yuZbyroZ7X-1" source="XLfQI3qNwgboP4kxltUH-4" target="XLfQI3qNwgboP4kxltUH-1">
                    <mxGeometry relative="1" as="geometry"/>
                </mxCell>
                <mxCell id="XLfQI3qNwgboP4kxltUH-4" value="status = pending" style="text;html=1;strokeColor=none;fillColor=none;align=center;verticalAlign=middle;whiteSpace=wrap;rounded=0;sketch=1;fontFamily=Fira Code;fontSource=https%3A%2F%2Ffonts.googleapis.com%2Fcss%3Ffamily%3DFira%2BCode;fontSize=12;fontColor=default;" vertex="1" parent="RE9-uMMAI3yuZbyroZ7X-1">
                    <mxGeometry x="80" y="-1025" width="140" height="30" as="geometry"/>
                </mxCell>
                <mxCell id="XLfQI3qNwgboP4kxltUH-5" style="edgeStyle=none;rounded=1;sketch=1;html=1;fontFamily=Fira Code;fontSource=https%3A%2F%2Ffonts.googleapis.com%2Fcss%3Ffamily%3DFira%2BCode;fontSize=12;fontColor=default;" edge="1" parent="RE9-uMMAI3yuZbyroZ7X-1" source="XLfQI3qNwgboP4kxltUH-6" target="XLfQI3qNwgboP4kxltUH-1">
                    <mxGeometry relative="1" as="geometry"/>
                </mxCell>
                <mxCell id="XLfQI3qNwgboP4kxltUH-6" value="Click save" style="whiteSpace=wrap;html=1;verticalAlign=middle;rounded=1;sketch=1;fontSize=12;fontFamily=Fira Code;fontSource=https%3A%2F%2Ffonts.googleapis.com%2Fcss%3Ffamily%3DFira%2BCode;" vertex="1" parent="RE9-uMMAI3yuZbyroZ7X-1">
                    <mxGeometry x="285" y="-1160" width="120" height="60" as="geometry"/>
                </mxCell>
                <mxCell id="XLfQI3qNwgboP4kxltUH-7" style="edgeStyle=none;rounded=1;sketch=1;html=1;fontFamily=Fira Code;fontSource=https%3A%2F%2Ffonts.googleapis.com%2Fcss%3Ffamily%3DFira%2BCode;fontSize=12;fontColor=default;" edge="1" parent="RE9-uMMAI3yuZbyroZ7X-1" source="XLfQI3qNwgboP4kxltUH-8" target="XLfQI3qNwgboP4kxltUH-6">
                    <mxGeometry relative="1" as="geometry"/>
                </mxCell>
                <mxCell id="XLfQI3qNwgboP4kxltUH-8" value="Input data" style="whiteSpace=wrap;html=1;verticalAlign=middle;rounded=1;sketch=1;fontSize=12;fontFamily=Fira Code;fontSource=https%3A%2F%2Ffonts.googleapis.com%2Fcss%3Ffamily%3DFira%2BCode;" vertex="1" parent="RE9-uMMAI3yuZbyroZ7X-1">
                    <mxGeometry x="285" y="-1280" width="120" height="60" as="geometry"/>
                </mxCell>
                <mxCell id="XLfQI3qNwgboP4kxltUH-9" value="" style="edgeStyle=none;rounded=1;sketch=1;html=1;fontFamily=Fira Code;fontSource=https%3A%2F%2Ffonts.googleapis.com%2Fcss%3Ffamily%3DFira%2BCode;fontSize=12;fontColor=default;" edge="1" parent="RE9-uMMAI3yuZbyroZ7X-1" source="XLfQI3qNwgboP4kxltUH-10" target="XLfQI3qNwgboP4kxltUH-8">
                    <mxGeometry relative="1" as="geometry"/>
                </mxCell>
                <mxCell id="XLfQI3qNwgboP4kxltUH-10" value="Staff" style="shape=umlActor;verticalLabelPosition=top;verticalAlign=bottom;html=1;outlineConnect=0;rounded=1;sketch=1;fontFamily=Fira Code;fontSource=https%3A%2F%2Ffonts.googleapis.com%2Fcss%3Ffamily%3DFira%2BCode;fontSize=12;fontColor=default;strokeColor=default;fillColor=default;labelPosition=center;align=center;" vertex="1" parent="RE9-uMMAI3yuZbyroZ7X-1">
                    <mxGeometry x="330" y="-1400" width="30" height="60" as="geometry"/>
                </mxCell>
                <mxCell id="XLfQI3qNwgboP4kxltUH-11" value="" style="edgeStyle=none;rounded=1;sketch=1;html=1;fontFamily=Fira Code;fontSource=https%3A%2F%2Ffonts.googleapis.com%2Fcss%3Ffamily%3DFira%2BCode;fontSize=12;fontColor=default;" edge="1" parent="RE9-uMMAI3yuZbyroZ7X-1" source="XLfQI3qNwgboP4kxltUH-12" target="XLfQI3qNwgboP4kxltUH-17">
                    <mxGeometry relative="1" as="geometry"/>
                </mxCell>
                <mxCell id="XLfQI3qNwgboP4kxltUH-12" value="Actor" style="shape=umlActor;verticalLabelPosition=top;verticalAlign=bottom;html=1;outlineConnect=0;rounded=1;sketch=1;fontFamily=Fira Code;fontSource=https%3A%2F%2Ffonts.googleapis.com%2Fcss%3Ffamily%3DFira%2BCode;fontSize=12;fontColor=default;strokeColor=default;fillColor=default;labelPosition=center;align=center;" vertex="1" parent="RE9-uMMAI3yuZbyroZ7X-1">
                    <mxGeometry x="820" y="-1400" width="30" height="60" as="geometry"/>
                </mxCell>
                <mxCell id="XLfQI3qNwgboP4kxltUH-13" value="" style="endArrow=none;dashed=1;html=1;dashPattern=1 3;strokeWidth=2;rounded=1;sketch=1;fontFamily=Fira Code;fontSource=https%3A%2F%2Ffonts.googleapis.com%2Fcss%3Ffamily%3DFira%2BCode;fontSize=12;fontColor=default;" edge="1" parent="RE9-uMMAI3yuZbyroZ7X-1">
                    <mxGeometry width="50" height="50" relative="1" as="geometry">
                        <mxPoint x="650" y="-880" as="sourcePoint"/>
                        <mxPoint x="650" y="-1560" as="targetPoint"/>
                    </mxGeometry>
                </mxCell>
                <mxCell id="XLfQI3qNwgboP4kxltUH-14" value="&lt;h1&gt;Create Withdraw&lt;/h1&gt;&lt;p&gt;When staff,member user create deposit document from panel&lt;/p&gt;" style="text;html=1;strokeColor=none;fillColor=none;spacing=5;spacingTop=-20;whiteSpace=wrap;overflow=hidden;rounded=0;sketch=1;fontFamily=Fira Code;fontSource=https%3A%2F%2Ffonts.googleapis.com%2Fcss%3Ffamily%3DFira%2BCode;fontSize=12;fontColor=default;" vertex="1" parent="RE9-uMMAI3yuZbyroZ7X-1">
                    <mxGeometry x="330" y="-1560" width="280" height="120" as="geometry"/>
                </mxCell>
                <mxCell id="XLfQI3qNwgboP4kxltUH-15" value="&lt;h1&gt;Search Withdraw Documents&lt;/h1&gt;&lt;p&gt;When staff user search deposit document into table&lt;/p&gt;" style="text;html=1;strokeColor=none;fillColor=none;spacing=5;spacingTop=-20;whiteSpace=wrap;overflow=hidden;rounded=0;sketch=1;fontFamily=Fira Code;fontSource=https%3A%2F%2Ffonts.googleapis.com%2Fcss%3Ffamily%3DFira%2BCode;fontSize=12;fontColor=default;" vertex="1" parent="RE9-uMMAI3yuZbyroZ7X-1">
                    <mxGeometry x="930" y="-1560" width="280" height="120" as="geometry"/>
                </mxCell>
                <mxCell id="XLfQI3qNwgboP4kxltUH-16" value="" style="edgeStyle=none;rounded=1;sketch=1;html=1;fontFamily=Fira Code;fontSource=https%3A%2F%2Ffonts.googleapis.com%2Fcss%3Ffamily%3DFira%2BCode;fontSize=12;fontColor=default;" edge="1" parent="RE9-uMMAI3yuZbyroZ7X-1" source="XLfQI3qNwgboP4kxltUH-17" target="XLfQI3qNwgboP4kxltUH-19">
                    <mxGeometry relative="1" as="geometry"/>
                </mxCell>
                <mxCell id="XLfQI3qNwgboP4kxltUH-17" value="Select search criteria" style="whiteSpace=wrap;html=1;fontFamily=Fira Code;verticalAlign=middle;rounded=1;sketch=1;fontSource=https%3A%2F%2Ffonts.googleapis.com%2Fcss%3Ffamily%3DFira%2BCode;" vertex="1" parent="RE9-uMMAI3yuZbyroZ7X-1">
                    <mxGeometry x="775" y="-1280" width="120" height="60" as="geometry"/>
                </mxCell>
                <mxCell id="XLfQI3qNwgboP4kxltUH-18" value="" style="edgeStyle=none;rounded=1;sketch=1;html=1;fontFamily=Fira Code;fontSource=https%3A%2F%2Ffonts.googleapis.com%2Fcss%3Ffamily%3DFira%2BCode;fontSize=12;fontColor=default;" edge="1" parent="RE9-uMMAI3yuZbyroZ7X-1" source="XLfQI3qNwgboP4kxltUH-19" target="XLfQI3qNwgboP4kxltUH-21">
                    <mxGeometry relative="1" as="geometry"/>
                </mxCell>
                <mxCell id="XLfQI3qNwgboP4kxltUH-19" value="Click search" style="whiteSpace=wrap;html=1;fontFamily=Fira Code;verticalAlign=middle;rounded=1;sketch=1;fontSource=https%3A%2F%2Ffonts.googleapis.com%2Fcss%3Ffamily%3DFira%2BCode;" vertex="1" parent="RE9-uMMAI3yuZbyroZ7X-1">
                    <mxGeometry x="775" y="-1160" width="120" height="60" as="geometry"/>
                </mxCell>
                <mxCell id="XLfQI3qNwgboP4kxltUH-20" value="" style="edgeStyle=none;rounded=1;sketch=1;html=1;fontFamily=Fira Code;fontSource=https%3A%2F%2Ffonts.googleapis.com%2Fcss%3Ffamily%3DFira%2BCode;fontSize=12;fontColor=default;" edge="1" parent="RE9-uMMAI3yuZbyroZ7X-1" source="XLfQI3qNwgboP4kxltUH-21" target="XLfQI3qNwgboP4kxltUH-22">
                    <mxGeometry relative="1" as="geometry"/>
                </mxCell>
                <mxCell id="XLfQI3qNwgboP4kxltUH-21" value="API Query data" style="whiteSpace=wrap;html=1;fontFamily=Fira Code;verticalAlign=middle;rounded=1;sketch=1;fontSource=https%3A%2F%2Ffonts.googleapis.com%2Fcss%3Ffamily%3DFira%2BCode;" vertex="1" parent="RE9-uMMAI3yuZbyroZ7X-1">
                    <mxGeometry x="775" y="-1040" width="120" height="60" as="geometry"/>
                </mxCell>
                <mxCell id="XLfQI3qNwgboP4kxltUH-22" value="withdraw" style="shape=cylinder3;whiteSpace=wrap;html=1;boundedLbl=1;backgroundOutline=1;size=15;rounded=1;sketch=1;fontFamily=Fira Code;fontSource=https%3A%2F%2Ffonts.googleapis.com%2Fcss%3Ffamily%3DFira%2BCode;fontSize=12;fontColor=default;strokeColor=default;fillColor=default;" vertex="1" parent="RE9-uMMAI3yuZbyroZ7X-1">
                    <mxGeometry x="990" y="-1050" width="60" height="80" as="geometry"/>
                </mxCell>
                <mxCell id="XLfQI3qNwgboP4kxltUH-23" value="" style="endArrow=none;dashed=1;html=1;dashPattern=1 3;strokeWidth=2;rounded=1;sketch=1;fontFamily=Fira Code;fontSource=https%3A%2F%2Ffonts.googleapis.com%2Fcss%3Ffamily%3DFira%2BCode;fontSize=12;fontColor=default;" edge="1" parent="RE9-uMMAI3yuZbyroZ7X-1">
                    <mxGeometry width="50" height="50" relative="1" as="geometry">
                        <mxPoint x="1210" y="-880" as="sourcePoint"/>
                        <mxPoint x="1210" y="-1560" as="targetPoint"/>
                    </mxGeometry>
                </mxCell>
                <mxCell id="XLfQI3qNwgboP4kxltUH-24" value="" style="edgeStyle=none;rounded=1;sketch=1;html=1;fontFamily=Fira Code;fontSource=https%3A%2F%2Ffonts.googleapis.com%2Fcss%3Ffamily%3DFira%2BCode;fontSize=12;fontColor=default;" edge="1" parent="RE9-uMMAI3yuZbyroZ7X-1" source="XLfQI3qNwgboP4kxltUH-25" target="XLfQI3qNwgboP4kxltUH-28">
                    <mxGeometry relative="1" as="geometry"/>
                </mxCell>
                <mxCell id="XLfQI3qNwgboP4kxltUH-25" value="Actor" style="shape=umlActor;verticalLabelPosition=top;verticalAlign=bottom;html=1;outlineConnect=0;rounded=1;sketch=1;fontFamily=Fira Code;fontSource=https%3A%2F%2Ffonts.googleapis.com%2Fcss%3Ffamily%3DFira%2BCode;fontSize=12;fontColor=default;strokeColor=default;fillColor=default;labelPosition=center;align=center;" vertex="1" parent="RE9-uMMAI3yuZbyroZ7X-1">
                    <mxGeometry x="1450" y="-1400" width="30" height="60" as="geometry"/>
                </mxCell>
                <mxCell id="XLfQI3qNwgboP4kxltUH-26" value="&lt;h1&gt;Get Deposit Detail&lt;/h1&gt;&lt;p&gt;When staff user clicked on some record of withdraw document in table for view detail or do something&lt;/p&gt;" style="text;html=1;strokeColor=none;fillColor=none;spacing=5;spacingTop=-20;whiteSpace=wrap;overflow=hidden;rounded=0;sketch=1;fontFamily=Fira Code;fontSource=https%3A%2F%2Ffonts.googleapis.com%2Fcss%3Ffamily%3DFira%2BCode;fontSize=12;fontColor=default;" vertex="1" parent="RE9-uMMAI3yuZbyroZ7X-1">
                    <mxGeometry x="1610" y="-1560" width="280" height="120" as="geometry"/>
                </mxCell>
                <mxCell id="XLfQI3qNwgboP4kxltUH-27" value="" style="edgeStyle=none;rounded=1;sketch=1;html=1;fontFamily=Fira Code;fontSource=https%3A%2F%2Ffonts.googleapis.com%2Fcss%3Ffamily%3DFira%2BCode;fontSize=12;fontColor=default;" edge="1" parent="RE9-uMMAI3yuZbyroZ7X-1" source="XLfQI3qNwgboP4kxltUH-28" target="XLfQI3qNwgboP4kxltUH-30">
                    <mxGeometry relative="1" as="geometry"/>
                </mxCell>
                <mxCell id="XLfQI3qNwgboP4kxltUH-28" value="Click action button" style="whiteSpace=wrap;html=1;fontFamily=Fira Code;verticalAlign=middle;rounded=1;sketch=1;fontSource=https%3A%2F%2Ffonts.googleapis.com%2Fcss%3Ffamily%3DFira%2BCode;" vertex="1" parent="RE9-uMMAI3yuZbyroZ7X-1">
                    <mxGeometry x="1405" y="-1280" width="120" height="60" as="geometry"/>
                </mxCell>
                <mxCell id="XLfQI3qNwgboP4kxltUH-29" value="" style="edgeStyle=orthogonalEdgeStyle;shape=connector;rounded=1;sketch=1;html=1;labelBackgroundColor=default;fontFamily=Fira Code;fontSource=https%3A%2F%2Ffonts.googleapis.com%2Fcss%3Ffamily%3DFira%2BCode;fontSize=12;fontColor=default;endArrow=classic;strokeColor=default;" edge="1" parent="RE9-uMMAI3yuZbyroZ7X-1" source="XLfQI3qNwgboP4kxltUH-30" target="XLfQI3qNwgboP4kxltUH-47">
                    <mxGeometry relative="1" as="geometry"/>
                </mxCell>
                <mxCell id="XLfQI3qNwgboP4kxltUH-30" value="API flow" style="whiteSpace=wrap;html=1;fontFamily=Fira Code;verticalAlign=middle;rounded=1;sketch=1;fontSource=https%3A%2F%2Ffonts.googleapis.com%2Fcss%3Ffamily%3DFira%2BCode;" vertex="1" parent="RE9-uMMAI3yuZbyroZ7X-1">
                    <mxGeometry x="1405" y="-1160" width="120" height="60" as="geometry"/>
                </mxCell>
                <mxCell id="XLfQI3qNwgboP4kxltUH-31" value="" style="edgeStyle=none;rounded=1;sketch=1;html=1;fontFamily=Fira Code;fontSource=https%3A%2F%2Ffonts.googleapis.com%2Fcss%3Ffamily%3DFira%2BCode;fontSize=12;fontColor=default;" edge="1" parent="RE9-uMMAI3yuZbyroZ7X-1" source="XLfQI3qNwgboP4kxltUH-32" target="XLfQI3qNwgboP4kxltUH-35">
                    <mxGeometry relative="1" as="geometry"/>
                </mxCell>
                <mxCell id="XLfQI3qNwgboP4kxltUH-32" value="Check lock" style="whiteSpace=wrap;html=1;fontFamily=Fira Code;verticalAlign=middle;rounded=1;sketch=1;fontSource=https%3A%2F%2Ffonts.googleapis.com%2Fcss%3Ffamily%3DFira%2BCode;" vertex="1" parent="RE9-uMMAI3yuZbyroZ7X-1">
                    <mxGeometry x="1405" y="-940" width="120" height="60" as="geometry"/>
                </mxCell>
                <mxCell id="XLfQI3qNwgboP4kxltUH-33" value="Yes" style="edgeStyle=none;rounded=1;sketch=1;html=1;fontFamily=Fira Code;fontSource=https%3A%2F%2Ffonts.googleapis.com%2Fcss%3Ffamily%3DFira%2BCode;fontSize=12;fontColor=default;" edge="1" parent="RE9-uMMAI3yuZbyroZ7X-1" source="XLfQI3qNwgboP4kxltUH-35" target="XLfQI3qNwgboP4kxltUH-38">
                    <mxGeometry relative="1" as="geometry"/>
                </mxCell>
                <mxCell id="XLfQI3qNwgboP4kxltUH-34" value="No" style="edgeStyle=orthogonalEdgeStyle;rounded=1;sketch=1;html=1;fontFamily=Fira Code;fontSource=https%3A%2F%2Ffonts.googleapis.com%2Fcss%3Ffamily%3DFira%2BCode;fontSize=12;fontColor=default;" edge="1" parent="RE9-uMMAI3yuZbyroZ7X-1" source="XLfQI3qNwgboP4kxltUH-35" target="XLfQI3qNwgboP4kxltUH-45">
                    <mxGeometry relative="1" as="geometry">
                        <mxPoint x="1465" y="-640" as="targetPoint"/>
                        <Array as="points">
                            <mxPoint x="1465" y="-680"/>
                        </Array>
                    </mxGeometry>
                </mxCell>
                <mxCell id="XLfQI3qNwgboP4kxltUH-35" value="locked ?" style="rhombus;whiteSpace=wrap;html=1;fontFamily=Fira Code;rounded=1;sketch=1;fontSource=https%3A%2F%2Ffonts.googleapis.com%2Fcss%3Ffamily%3DFira%2BCode;" vertex="1" parent="RE9-uMMAI3yuZbyroZ7X-1">
                    <mxGeometry x="1425" y="-810" width="80" height="80" as="geometry"/>
                </mxCell>
                <mxCell id="XLfQI3qNwgboP4kxltUH-36" value="No" style="edgeStyle=none;rounded=1;sketch=1;html=1;fontFamily=Fira Code;fontSource=https%3A%2F%2Ffonts.googleapis.com%2Fcss%3Ffamily%3DFira%2BCode;fontSize=12;fontColor=default;" edge="1" parent="RE9-uMMAI3yuZbyroZ7X-1" source="XLfQI3qNwgboP4kxltUH-38" target="XLfQI3qNwgboP4kxltUH-41">
                    <mxGeometry relative="1" as="geometry"/>
                </mxCell>
                <mxCell id="XLfQI3qNwgboP4kxltUH-37" value="Yes" style="edgeStyle=orthogonalEdgeStyle;rounded=1;sketch=1;html=1;fontFamily=Fira Code;fontSource=https%3A%2F%2Ffonts.googleapis.com%2Fcss%3Ffamily%3DFira%2BCode;fontSize=12;fontColor=default;" edge="1" parent="RE9-uMMAI3yuZbyroZ7X-1" source="XLfQI3qNwgboP4kxltUH-38" target="XLfQI3qNwgboP4kxltUH-45">
                    <mxGeometry relative="1" as="geometry">
                        <mxPoint x="1525" y="-610" as="targetPoint"/>
                        <Array as="points">
                            <mxPoint x="1625" y="-680"/>
                        </Array>
                    </mxGeometry>
                </mxCell>
                <mxCell id="XLfQI3qNwgboP4kxltUH-38" value="is your ?" style="rhombus;whiteSpace=wrap;html=1;fontFamily=Fira Code;rounded=1;sketch=1;fontSource=https%3A%2F%2Ffonts.googleapis.com%2Fcss%3Ffamily%3DFira%2BCode;" vertex="1" parent="RE9-uMMAI3yuZbyroZ7X-1">
                    <mxGeometry x="1585" y="-810" width="80" height="80" as="geometry"/>
                </mxCell>
                <mxCell id="XLfQI3qNwgboP4kxltUH-39" value="Yes" style="edgeStyle=orthogonalEdgeStyle;shape=connector;rounded=1;sketch=1;html=1;labelBackgroundColor=default;fontFamily=Fira Code;fontSource=https%3A%2F%2Ffonts.googleapis.com%2Fcss%3Ffamily%3DFira%2BCode;fontSize=12;fontColor=default;endArrow=classic;strokeColor=default;" edge="1" parent="RE9-uMMAI3yuZbyroZ7X-1" source="XLfQI3qNwgboP4kxltUH-41" target="XLfQI3qNwgboP4kxltUH-43">
                    <mxGeometry relative="1" as="geometry">
                        <Array as="points">
                            <mxPoint x="1785" y="-560"/>
                        </Array>
                    </mxGeometry>
                </mxCell>
                <mxCell id="XLfQI3qNwgboP4kxltUH-40" value="No" style="edgeStyle=orthogonalEdgeStyle;shape=connector;rounded=1;sketch=1;html=1;labelBackgroundColor=default;fontFamily=Fira Code;fontSource=https%3A%2F%2Ffonts.googleapis.com%2Fcss%3Ffamily%3DFira%2BCode;fontSize=12;fontColor=default;endArrow=classic;strokeColor=default;" edge="1" parent="RE9-uMMAI3yuZbyroZ7X-1" source="XLfQI3qNwgboP4kxltUH-41" target="XLfQI3qNwgboP4kxltUH-48">
                    <mxGeometry relative="1" as="geometry"/>
                </mxCell>
                <mxCell id="XLfQI3qNwgboP4kxltUH-41" value="lock &amp;gt; 5 mins" style="rhombus;whiteSpace=wrap;html=1;fontFamily=Fira Code;rounded=1;sketch=1;fontSource=https%3A%2F%2Ffonts.googleapis.com%2Fcss%3Ffamily%3DFira%2BCode;" vertex="1" parent="RE9-uMMAI3yuZbyroZ7X-1">
                    <mxGeometry x="1745" y="-810" width="80" height="80" as="geometry"/>
                </mxCell>
                <mxCell id="XLfQI3qNwgboP4kxltUH-55" value="" style="edgeStyle=orthogonalEdgeStyle;shape=connector;rounded=1;sketch=1;html=1;labelBackgroundColor=default;fontFamily=Fira Code;fontSource=https%3A%2F%2Ffonts.googleapis.com%2Fcss%3Ffamily%3DFira%2BCode;fontSize=12;fontColor=default;endArrow=classic;strokeColor=default;" edge="1" parent="RE9-uMMAI3yuZbyroZ7X-1" source="XLfQI3qNwgboP4kxltUH-43" target="XLfQI3qNwgboP4kxltUH-54">
                    <mxGeometry relative="1" as="geometry"/>
                </mxCell>
                <mxCell id="XLfQI3qNwgboP4kxltUH-43" value="update&lt;br&gt;lock &amp;amp; lock by &amp;amp; lock date" style="whiteSpace=wrap;html=1;fontFamily=Fira Code;rounded=1;sketch=1;fontSource=https%3A%2F%2Ffonts.googleapis.com%2Fcss%3Ffamily%3DFira%2BCode;" vertex="1" parent="RE9-uMMAI3yuZbyroZ7X-1">
                    <mxGeometry x="1490" y="-590" width="120" height="60" as="geometry"/>
                </mxCell>
                <mxCell id="XLfQI3qNwgboP4kxltUH-44" style="edgeStyle=orthogonalEdgeStyle;shape=connector;rounded=1;sketch=1;html=1;labelBackgroundColor=default;fontFamily=Fira Code;fontSource=https%3A%2F%2Ffonts.googleapis.com%2Fcss%3Ffamily%3DFira%2BCode;fontSize=12;fontColor=default;endArrow=classic;strokeColor=default;" edge="1" parent="RE9-uMMAI3yuZbyroZ7X-1" source="XLfQI3qNwgboP4kxltUH-45" target="XLfQI3qNwgboP4kxltUH-43">
                    <mxGeometry relative="1" as="geometry"/>
                </mxCell>
                <mxCell id="XLfQI3qNwgboP4kxltUH-45" value="" style="verticalLabelPosition=bottom;verticalAlign=top;html=1;shape=mxgraph.flowchart.on-page_reference;rounded=1;sketch=1;fontFamily=Fira Code;fontSource=https%3A%2F%2Ffonts.googleapis.com%2Fcss%3Ffamily%3DFira%2BCode;fontSize=12;fontColor=default;strokeColor=default;fillColor=default;" vertex="1" parent="RE9-uMMAI3yuZbyroZ7X-1">
                    <mxGeometry x="1520" y="-710" width="60" height="60" as="geometry"/>
                </mxCell>
                <mxCell id="XLfQI3qNwgboP4kxltUH-46" value="" style="edgeStyle=orthogonalEdgeStyle;shape=connector;rounded=1;sketch=1;html=1;labelBackgroundColor=default;fontFamily=Fira Code;fontSource=https%3A%2F%2Ffonts.googleapis.com%2Fcss%3Ffamily%3DFira%2BCode;fontSize=12;fontColor=default;endArrow=classic;strokeColor=default;" edge="1" parent="RE9-uMMAI3yuZbyroZ7X-1" source="XLfQI3qNwgboP4kxltUH-47" target="XLfQI3qNwgboP4kxltUH-32">
                    <mxGeometry relative="1" as="geometry"/>
                </mxCell>
                <mxCell id="XLfQI3qNwgboP4kxltUH-47" value="Get data by _id" style="whiteSpace=wrap;html=1;fontFamily=Fira Code;verticalAlign=middle;rounded=1;sketch=1;fontSource=https%3A%2F%2Ffonts.googleapis.com%2Fcss%3Ffamily%3DFira%2BCode;" vertex="1" parent="RE9-uMMAI3yuZbyroZ7X-1">
                    <mxGeometry x="1405" y="-1050" width="120" height="60" as="geometry"/>
                </mxCell>
                <mxCell id="XLfQI3qNwgboP4kxltUH-48" value="Response error&lt;br&gt;locked document" style="whiteSpace=wrap;html=1;fontFamily=Fira Code;rounded=1;sketch=1;fontSource=https%3A%2F%2Ffonts.googleapis.com%2Fcss%3Ffamily%3DFira%2BCode;" vertex="1" parent="RE9-uMMAI3yuZbyroZ7X-1">
                    <mxGeometry x="1725" y="-960" width="120" height="60" as="geometry"/>
                </mxCell>
                <mxCell id="XLfQI3qNwgboP4kxltUH-50" value="" style="endArrow=none;dashed=1;html=1;dashPattern=1 3;strokeWidth=2;rounded=1;sketch=1;fontFamily=Fira Code;fontSource=https%3A%2F%2Ffonts.googleapis.com%2Fcss%3Ffamily%3DFira%2BCode;fontSize=12;fontColor=default;" edge="1" parent="RE9-uMMAI3yuZbyroZ7X-1">
                    <mxGeometry width="50" height="50" relative="1" as="geometry">
                        <mxPoint x="1930" y="-880" as="sourcePoint"/>
                        <mxPoint x="1930" y="-1560" as="targetPoint"/>
                    </mxGeometry>
                </mxCell>
                <mxCell id="XLfQI3qNwgboP4kxltUH-51" value="Send request to provider check turnover last deposit" style="whiteSpace=wrap;html=1;verticalAlign=middle;rounded=1;sketch=1;fontSize=12;fontFamily=Fira Code;fontSource=https%3A%2F%2Ffonts.googleapis.com%2Fcss%3Ffamily%3DFira%2BCode;" vertex="1" parent="RE9-uMMAI3yuZbyroZ7X-1">
                    <mxGeometry x="285" y="-900" width="120" height="60" as="geometry"/>
                </mxCell>
                <mxCell id="XLfQI3qNwgboP4kxltUH-53" value="Response success&lt;br&gt;withdraw data" style="whiteSpace=wrap;html=1;fontFamily=Fira Code;rounded=1;sketch=1;fontSource=https%3A%2F%2Ffonts.googleapis.com%2Fcss%3Ffamily%3DFira%2BCode;" vertex="1" parent="RE9-uMMAI3yuZbyroZ7X-1">
                    <mxGeometry x="1250" y="-770" width="120" height="60" as="geometry"/>
                </mxCell>
                <mxCell id="XLfQI3qNwgboP4kxltUH-56" style="edgeStyle=orthogonalEdgeStyle;shape=connector;rounded=1;sketch=1;html=1;labelBackgroundColor=default;fontFamily=Fira Code;fontSource=https%3A%2F%2Ffonts.googleapis.com%2Fcss%3Ffamily%3DFira%2BCode;fontSize=12;fontColor=default;endArrow=classic;strokeColor=default;" edge="1" parent="RE9-uMMAI3yuZbyroZ7X-1" source="XLfQI3qNwgboP4kxltUH-54" target="XLfQI3qNwgboP4kxltUH-53">
                    <mxGeometry relative="1" as="geometry"/>
                </mxCell>
                <mxCell id="XLfQI3qNwgboP4kxltUH-54" value="check turnover with provider" style="whiteSpace=wrap;html=1;fontFamily=Fira Code;rounded=1;sketch=1;fontSource=https%3A%2F%2Ffonts.googleapis.com%2Fcss%3Ffamily%3DFira%2BCode;dashed=1;" vertex="1" parent="RE9-uMMAI3yuZbyroZ7X-1">
                    <mxGeometry x="1290" y="-590" width="120" height="60" as="geometry"/>
                </mxCell>
                <mxCell id="rJtMm27bxq3YdEN3bY3k-0" value="&lt;h1&gt;Update Withdraw Detail&lt;/h1&gt;&lt;p&gt;When staff user clicked some action button on withdraw modal &lt;br&gt;(Approve, Reject)&amp;nbsp;&lt;/p&gt;" style="text;html=1;strokeColor=none;fillColor=none;spacing=5;spacingTop=-20;whiteSpace=wrap;overflow=hidden;rounded=0;sketch=1;fontFamily=Fira Code;fontSource=https%3A%2F%2Ffonts.googleapis.com%2Fcss%3Ffamily%3DFira%2BCode;fontSize=12;fontColor=default;" vertex="1" parent="RE9-uMMAI3yuZbyroZ7X-1">
                    <mxGeometry x="2370" y="-1560" width="330" height="120" as="geometry"/>
                </mxCell>
                <mxCell id="rJtMm27bxq3YdEN3bY3k-1" value="" style="edgeStyle=none;rounded=1;sketch=1;html=1;fontFamily=Fira Code;fontSource=https%3A%2F%2Ffonts.googleapis.com%2Fcss%3Ffamily%3DFira%2BCode;fontSize=12;fontColor=default;" edge="1" parent="RE9-uMMAI3yuZbyroZ7X-1" source="rJtMm27bxq3YdEN3bY3k-2" target="rJtMm27bxq3YdEN3bY3k-8">
                    <mxGeometry relative="1" as="geometry">
                        <mxPoint x="2250" y="-1280" as="targetPoint"/>
                    </mxGeometry>
                </mxCell>
                <mxCell id="rJtMm27bxq3YdEN3bY3k-2" value="Actor" style="shape=umlActor;verticalLabelPosition=top;verticalAlign=bottom;html=1;outlineConnect=0;rounded=1;sketch=1;fontFamily=Fira Code;fontSource=https%3A%2F%2Ffonts.googleapis.com%2Fcss%3Ffamily%3DFira%2BCode;fontSize=12;fontColor=default;strokeColor=default;fillColor=default;labelPosition=center;align=center;" vertex="1" parent="RE9-uMMAI3yuZbyroZ7X-1">
                    <mxGeometry x="2235" y="-1400" width="30" height="60" as="geometry"/>
                </mxCell>
                <mxCell id="rJtMm27bxq3YdEN3bY3k-7" value="" style="edgeStyle=orthogonalEdgeStyle;shape=connector;rounded=1;sketch=1;html=1;labelBackgroundColor=default;fontFamily=Fira Code;fontSource=https%3A%2F%2Ffonts.googleapis.com%2Fcss%3Ffamily%3DFira%2BCode;fontSize=12;fontColor=default;endArrow=classic;strokeColor=default;" edge="1" parent="RE9-uMMAI3yuZbyroZ7X-1" source="rJtMm27bxq3YdEN3bY3k-8" target="rJtMm27bxq3YdEN3bY3k-12">
                    <mxGeometry relative="1" as="geometry"/>
                </mxCell>
                <mxCell id="rJtMm27bxq3YdEN3bY3k-8" value="Click button" style="whiteSpace=wrap;html=1;fontFamily=Fira Code;verticalAlign=middle;rounded=1;sketch=1;fontSource=https%3A%2F%2Ffonts.googleapis.com%2Fcss%3Ffamily%3DFira%2BCode;" vertex="1" parent="RE9-uMMAI3yuZbyroZ7X-1">
                    <mxGeometry x="2190" y="-1280" width="120" height="60" as="geometry"/>
                </mxCell>
                <mxCell id="rJtMm27bxq3YdEN3bY3k-9" style="edgeStyle=orthogonalEdgeStyle;shape=connector;rounded=1;sketch=1;html=1;labelBackgroundColor=default;fontFamily=Fira Code;fontSource=https%3A%2F%2Ffonts.googleapis.com%2Fcss%3Ffamily%3DFira%2BCode;fontSize=12;fontColor=default;endArrow=classic;strokeColor=default;" edge="1" parent="RE9-uMMAI3yuZbyroZ7X-1" source="rJtMm27bxq3YdEN3bY3k-10" target="rJtMm27bxq3YdEN3bY3k-8">
                    <mxGeometry relative="1" as="geometry"/>
                </mxCell>
                <mxCell id="rJtMm27bxq3YdEN3bY3k-10" value="Approve, Reject, Save" style="text;html=1;strokeColor=none;fillColor=none;align=left;verticalAlign=middle;whiteSpace=wrap;rounded=0;sketch=1;fontFamily=Fira Code;fontSource=https%3A%2F%2Ffonts.googleapis.com%2Fcss%3Ffamily%3DFira%2BCode;fontSize=12;fontColor=default;" vertex="1" parent="RE9-uMMAI3yuZbyroZ7X-1">
                    <mxGeometry x="2370" y="-1265" width="160" height="30" as="geometry"/>
                </mxCell>
                <mxCell id="rJtMm27bxq3YdEN3bY3k-11" value="" style="edgeStyle=orthogonalEdgeStyle;shape=connector;rounded=1;sketch=1;html=1;labelBackgroundColor=default;fontFamily=Fira Code;fontSource=https%3A%2F%2Ffonts.googleapis.com%2Fcss%3Ffamily%3DFira%2BCode;fontSize=12;fontColor=default;endArrow=classic;strokeColor=default;" edge="1" parent="RE9-uMMAI3yuZbyroZ7X-1" source="rJtMm27bxq3YdEN3bY3k-12" target="rJtMm27bxq3YdEN3bY3k-14">
                    <mxGeometry relative="1" as="geometry"/>
                </mxCell>
                <mxCell id="rJtMm27bxq3YdEN3bY3k-12" value="API Flow" style="whiteSpace=wrap;html=1;fontFamily=Fira Code;verticalAlign=middle;rounded=1;sketch=1;fontSource=https%3A%2F%2Ffonts.googleapis.com%2Fcss%3Ffamily%3DFira%2BCode;" vertex="1" parent="RE9-uMMAI3yuZbyroZ7X-1">
                    <mxGeometry x="2190" y="-1040" width="120" height="60" as="geometry"/>
                </mxCell>
                <mxCell id="rJtMm27bxq3YdEN3bY3k-13" value="" style="edgeStyle=orthogonalEdgeStyle;shape=connector;rounded=1;sketch=1;html=1;labelBackgroundColor=default;fontFamily=Fira Code;fontSource=https%3A%2F%2Ffonts.googleapis.com%2Fcss%3Ffamily%3DFira%2BCode;fontSize=12;fontColor=default;endArrow=classic;strokeColor=default;" edge="1" parent="RE9-uMMAI3yuZbyroZ7X-1" source="rJtMm27bxq3YdEN3bY3k-14" target="rJtMm27bxq3YdEN3bY3k-17">
                    <mxGeometry relative="1" as="geometry"/>
                </mxCell>
                <mxCell id="rJtMm27bxq3YdEN3bY3k-14" value="Check lock" style="whiteSpace=wrap;html=1;fontFamily=Fira Code;verticalAlign=middle;rounded=1;sketch=1;fontSource=https%3A%2F%2Ffonts.googleapis.com%2Fcss%3Ffamily%3DFira%2BCode;" vertex="1" parent="RE9-uMMAI3yuZbyroZ7X-1">
                    <mxGeometry x="2190" y="-920" width="120" height="60" as="geometry"/>
                </mxCell>
                <mxCell id="rJtMm27bxq3YdEN3bY3k-15" value="No" style="edgeStyle=orthogonalEdgeStyle;shape=connector;rounded=1;sketch=1;html=1;labelBackgroundColor=default;fontFamily=Fira Code;fontSource=https%3A%2F%2Ffonts.googleapis.com%2Fcss%3Ffamily%3DFira%2BCode;fontSize=12;fontColor=default;endArrow=classic;strokeColor=default;" edge="1" parent="RE9-uMMAI3yuZbyroZ7X-1" source="rJtMm27bxq3YdEN3bY3k-17" target="rJtMm27bxq3YdEN3bY3k-18">
                    <mxGeometry relative="1" as="geometry"/>
                </mxCell>
                <mxCell id="rJtMm27bxq3YdEN3bY3k-16" value="Yes" style="edgeStyle=orthogonalEdgeStyle;shape=connector;rounded=1;sketch=1;html=1;labelBackgroundColor=default;fontFamily=Fira Code;fontSource=https%3A%2F%2Ffonts.googleapis.com%2Fcss%3Ffamily%3DFira%2BCode;fontSize=12;fontColor=default;endArrow=classic;strokeColor=default;" edge="1" parent="RE9-uMMAI3yuZbyroZ7X-1" source="rJtMm27bxq3YdEN3bY3k-17" target="rJtMm27bxq3YdEN3bY3k-20">
                    <mxGeometry relative="1" as="geometry">
                        <mxPoint x="2370" y="-760" as="targetPoint"/>
                    </mxGeometry>
                </mxCell>
                <mxCell id="rJtMm27bxq3YdEN3bY3k-17" value="locked ?&lt;br&gt;&amp;amp;&lt;br&gt;Your ?" style="rhombus;whiteSpace=wrap;html=1;fontFamily=Fira Code;rounded=1;sketch=1;fontSource=https%3A%2F%2Ffonts.googleapis.com%2Fcss%3Ffamily%3DFira%2BCode;" vertex="1" parent="RE9-uMMAI3yuZbyroZ7X-1">
                    <mxGeometry x="2210" y="-800" width="80" height="80" as="geometry"/>
                </mxCell>
                <mxCell id="rJtMm27bxq3YdEN3bY3k-18" value="Response error&lt;br&gt;locked document error" style="whiteSpace=wrap;html=1;fontFamily=Fira Code;rounded=1;sketch=1;fontSource=https%3A%2F%2Ffonts.googleapis.com%2Fcss%3Ffamily%3DFira%2BCode;" vertex="1" parent="RE9-uMMAI3yuZbyroZ7X-1">
                    <mxGeometry x="2010" y="-790" width="120" height="60" as="geometry"/>
                </mxCell>
                <mxCell id="rJtMm27bxq3YdEN3bY3k-19" value="" style="edgeStyle=orthogonalEdgeStyle;shape=connector;rounded=1;sketch=1;html=1;labelBackgroundColor=default;fontFamily=Fira Code;fontSource=https%3A%2F%2Ffonts.googleapis.com%2Fcss%3Ffamily%3DFira%2BCode;fontSize=12;fontColor=default;endArrow=classic;strokeColor=default;" edge="1" parent="RE9-uMMAI3yuZbyroZ7X-1" source="rJtMm27bxq3YdEN3bY3k-20" target="rJtMm27bxq3YdEN3bY3k-23">
                    <mxGeometry relative="1" as="geometry"/>
                </mxCell>
                <mxCell id="rJtMm27bxq3YdEN3bY3k-20" value="check action status" style="whiteSpace=wrap;html=1;fontFamily=Fira Code;rounded=1;sketch=1;fontSource=https%3A%2F%2Ffonts.googleapis.com%2Fcss%3Ffamily%3DFira%2BCode;" vertex="1" parent="RE9-uMMAI3yuZbyroZ7X-1">
                    <mxGeometry x="2370" y="-790" width="120" height="60" as="geometry"/>
                </mxCell>
                <mxCell id="rJtMm27bxq3YdEN3bY3k-21" value="No" style="edgeStyle=orthogonalEdgeStyle;shape=connector;rounded=1;sketch=1;html=1;labelBackgroundColor=default;fontFamily=Fira Code;fontSource=https%3A%2F%2Ffonts.googleapis.com%2Fcss%3Ffamily%3DFira%2BCode;fontSize=12;fontColor=default;endArrow=classic;strokeColor=default;" edge="1" parent="RE9-uMMAI3yuZbyroZ7X-1" source="rJtMm27bxq3YdEN3bY3k-23" target="rJtMm27bxq3YdEN3bY3k-25">
                    <mxGeometry relative="1" as="geometry"/>
                </mxCell>
                <mxCell id="M0bXDlwi2XGP6Iuky7ou-2" value="Yes" style="edgeStyle=orthogonalEdgeStyle;shape=connector;rounded=1;sketch=1;html=1;labelBackgroundColor=default;fontFamily=Fira Code;fontSource=https%3A%2F%2Ffonts.googleapis.com%2Fcss%3Ffamily%3DFira%2BCode;fontSize=12;fontColor=default;endArrow=classic;strokeColor=default;" edge="1" parent="RE9-uMMAI3yuZbyroZ7X-1" source="rJtMm27bxq3YdEN3bY3k-23" target="M0bXDlwi2XGP6Iuky7ou-1">
                    <mxGeometry relative="1" as="geometry"/>
                </mxCell>
                <mxCell id="rJtMm27bxq3YdEN3bY3k-23" value="approve ?" style="rhombus;whiteSpace=wrap;html=1;fontFamily=Fira Code;rounded=1;sketch=1;fontSource=https%3A%2F%2Ffonts.googleapis.com%2Fcss%3Ffamily%3DFira%2BCode;" vertex="1" parent="RE9-uMMAI3yuZbyroZ7X-1">
                    <mxGeometry x="2390" y="-660" width="80" height="80" as="geometry"/>
                </mxCell>
                <mxCell id="rJtMm27bxq3YdEN3bY3k-24" value="" style="edgeStyle=orthogonalEdgeStyle;shape=connector;rounded=1;sketch=1;html=1;labelBackgroundColor=default;fontFamily=Fira Code;fontSource=https%3A%2F%2Ffonts.googleapis.com%2Fcss%3Ffamily%3DFira%2BCode;fontSize=12;fontColor=default;endArrow=classic;strokeColor=default;" edge="1" parent="RE9-uMMAI3yuZbyroZ7X-1" source="rJtMm27bxq3YdEN3bY3k-25" target="rJtMm27bxq3YdEN3bY3k-28">
                    <mxGeometry relative="1" as="geometry"/>
                </mxCell>
                <mxCell id="rJtMm27bxq3YdEN3bY3k-25" value="Update deposit document" style="whiteSpace=wrap;html=1;fontFamily=Fira Code;rounded=1;sketch=1;fontSource=https%3A%2F%2Ffonts.googleapis.com%2Fcss%3Ffamily%3DFira%2BCode;" vertex="1" parent="RE9-uMMAI3yuZbyroZ7X-1">
                    <mxGeometry x="2370" y="-520" width="120" height="60" as="geometry"/>
                </mxCell>
                <mxCell id="rJtMm27bxq3YdEN3bY3k-26" value="Response success" style="whiteSpace=wrap;html=1;fontFamily=Fira Code;rounded=1;sketch=1;fontSource=https%3A%2F%2Ffonts.googleapis.com%2Fcss%3Ffamily%3DFira%2BCode;" vertex="1" parent="RE9-uMMAI3yuZbyroZ7X-1">
                    <mxGeometry x="2370" y="-280" width="120" height="60" as="geometry"/>
                </mxCell>
                <mxCell id="rJtMm27bxq3YdEN3bY3k-27" value="" style="edgeStyle=orthogonalEdgeStyle;shape=connector;rounded=1;sketch=1;html=1;labelBackgroundColor=default;fontFamily=Fira Code;fontSource=https%3A%2F%2Ffonts.googleapis.com%2Fcss%3Ffamily%3DFira%2BCode;fontSize=12;fontColor=default;endArrow=classic;strokeColor=default;" edge="1" parent="RE9-uMMAI3yuZbyroZ7X-1" source="rJtMm27bxq3YdEN3bY3k-28" target="rJtMm27bxq3YdEN3bY3k-26">
                    <mxGeometry relative="1" as="geometry"/>
                </mxCell>
                <mxCell id="rJtMm27bxq3YdEN3bY3k-28" value="&lt;font face=&quot;fira code&quot;&gt;clear&lt;/font&gt;&lt;br style=&quot;color: rgb(240 , 240 , 240) ; font-family: &amp;#34;fira code&amp;#34; ; font-size: 12px ; font-style: normal ; font-weight: 400 ; letter-spacing: normal ; text-align: center ; text-indent: 0px ; text-transform: none ; word-spacing: 0px ; background-color: rgb(42 , 42 , 42)&quot;&gt;&lt;span style=&quot;color: rgb(240 , 240 , 240) ; font-family: &amp;#34;fira code&amp;#34; ; font-size: 12px ; font-style: normal ; font-weight: 400 ; letter-spacing: normal ; text-align: center ; text-indent: 0px ; text-transform: none ; word-spacing: 0px ; background-color: rgb(42 , 42 , 42) ; display: inline ; float: none&quot;&gt;lock &amp;amp; lock by &amp;amp; lock date&lt;/span&gt;" style="whiteSpace=wrap;html=1;fontFamily=Fira Code;rounded=1;sketch=1;fontSource=https%3A%2F%2Ffonts.googleapis.com%2Fcss%3Ffamily%3DFira%2BCode;" vertex="1" parent="RE9-uMMAI3yuZbyroZ7X-1">
                    <mxGeometry x="2370" y="-400" width="120" height="60" as="geometry"/>
                </mxCell>
                <mxCell id="rJtMm27bxq3YdEN3bY3k-33" value="" style="endArrow=none;dashed=1;html=1;dashPattern=1 3;strokeWidth=2;rounded=1;sketch=1;fontFamily=Fira Code;fontSource=https%3A%2F%2Ffonts.googleapis.com%2Fcss%3Ffamily%3DFira%2BCode;fontSize=12;fontColor=default;" edge="1" parent="RE9-uMMAI3yuZbyroZ7X-1">
                    <mxGeometry width="50" height="50" relative="1" as="geometry">
                        <mxPoint x="2730" y="-890" as="sourcePoint"/>
                        <mxPoint x="2730" y="-1570" as="targetPoint"/>
                    </mxGeometry>
                </mxCell>
                <mxCell id="rJtMm27bxq3YdEN3bY3k-34" style="edgeStyle=orthogonalEdgeStyle;shape=connector;rounded=1;sketch=1;html=1;labelBackgroundColor=default;fontFamily=Fira Code;fontSource=https%3A%2F%2Ffonts.googleapis.com%2Fcss%3Ffamily%3DFira%2BCode;fontSize=12;fontColor=default;endArrow=classic;strokeColor=default;" edge="1" parent="RE9-uMMAI3yuZbyroZ7X-1" source="M0bXDlwi2XGP6Iuky7ou-0">
                    <mxGeometry relative="1" as="geometry">
                        <mxPoint x="2620" y="-490" as="sourcePoint"/>
                        <mxPoint x="2450" y="-560" as="targetPoint"/>
                        <Array as="points">
                            <mxPoint x="2625" y="-560"/>
                        </Array>
                    </mxGeometry>
                </mxCell>
                <mxCell id="M0bXDlwi2XGP6Iuky7ou-0" value="status = reject" style="text;html=1;strokeColor=none;fillColor=none;align=center;verticalAlign=middle;whiteSpace=wrap;rounded=0;sketch=1;fontFamily=Fira Code;fontSource=https%3A%2F%2Ffonts.googleapis.com%2Fcss%3Ffamily%3DFira%2BCode;fontSize=12;fontColor=default;" vertex="1" parent="RE9-uMMAI3yuZbyroZ7X-1">
                    <mxGeometry x="2500" y="-575" width="190" height="30" as="geometry"/>
                </mxCell>
                <mxCell id="M0bXDlwi2XGP6Iuky7ou-4" value="Yes" style="edgeStyle=orthogonalEdgeStyle;shape=connector;rounded=1;sketch=1;html=1;labelBackgroundColor=default;fontFamily=Fira Code;fontSource=https%3A%2F%2Ffonts.googleapis.com%2Fcss%3Ffamily%3DFira%2BCode;fontSize=12;fontColor=default;endArrow=classic;strokeColor=default;" edge="1" parent="RE9-uMMAI3yuZbyroZ7X-1" source="M0bXDlwi2XGP6Iuky7ou-1" target="M0bXDlwi2XGP6Iuky7ou-3">
                    <mxGeometry relative="1" as="geometry"/>
                </mxCell>
                <mxCell id="M0bXDlwi2XGP6Iuky7ou-5" value="Reject" style="edgeStyle=orthogonalEdgeStyle;shape=connector;rounded=1;sketch=1;html=1;labelBackgroundColor=default;fontFamily=Fira Code;fontSource=https%3A%2F%2Ffonts.googleapis.com%2Fcss%3Ffamily%3DFira%2BCode;fontSize=12;fontColor=default;endArrow=classic;strokeColor=default;" edge="1" parent="RE9-uMMAI3yuZbyroZ7X-1" source="M0bXDlwi2XGP6Iuky7ou-1" target="rJtMm27bxq3YdEN3bY3k-25">
                    <mxGeometry relative="1" as="geometry">
                        <Array as="points">
                            <mxPoint x="2270" y="-490"/>
                        </Array>
                    </mxGeometry>
                </mxCell>
                <mxCell id="M0bXDlwi2XGP6Iuky7ou-1" value="have balance ?" style="rhombus;whiteSpace=wrap;html=1;fontFamily=Fira Code;rounded=1;sketch=1;fontSource=https%3A%2F%2Ffonts.googleapis.com%2Fcss%3Ffamily%3DFira%2BCode;" vertex="1" parent="RE9-uMMAI3yuZbyroZ7X-1">
                    <mxGeometry x="2230" y="-660" width="80" height="80" as="geometry"/>
                </mxCell>
                <mxCell id="M0bXDlwi2XGP6Iuky7ou-7" value="" style="edgeStyle=orthogonalEdgeStyle;shape=connector;rounded=1;sketch=1;html=1;labelBackgroundColor=default;fontFamily=Fira Code;fontSource=https%3A%2F%2Ffonts.googleapis.com%2Fcss%3Ffamily%3DFira%2BCode;fontSize=12;fontColor=default;endArrow=classic;strokeColor=default;" edge="1" parent="RE9-uMMAI3yuZbyroZ7X-1" source="M0bXDlwi2XGP6Iuky7ou-3" target="M0bXDlwi2XGP6Iuky7ou-6">
                    <mxGeometry relative="1" as="geometry"/>
                </mxCell>
                <mxCell id="M0bXDlwi2XGP6Iuky7ou-3" value="witdraw from provider" style="whiteSpace=wrap;html=1;fontFamily=Fira Code;rounded=1;sketch=1;fontSource=https%3A%2F%2Ffonts.googleapis.com%2Fcss%3Ffamily%3DFira%2BCode;" vertex="1" parent="RE9-uMMAI3yuZbyroZ7X-1">
                    <mxGeometry x="2050" y="-650" width="120" height="60" as="geometry"/>
                </mxCell>
                <mxCell id="M0bXDlwi2XGP6Iuky7ou-8" style="edgeStyle=orthogonalEdgeStyle;shape=connector;rounded=1;sketch=1;html=1;labelBackgroundColor=default;fontFamily=Fira Code;fontSource=https%3A%2F%2Ffonts.googleapis.com%2Fcss%3Ffamily%3DFira%2BCode;fontSize=12;fontColor=default;endArrow=classic;strokeColor=default;" edge="1" parent="RE9-uMMAI3yuZbyroZ7X-1" source="M0bXDlwi2XGP6Iuky7ou-6" target="rJtMm27bxq3YdEN3bY3k-25">
                    <mxGeometry relative="1" as="geometry"/>
                </mxCell>
                <mxCell id="M0bXDlwi2XGP6Iuky7ou-10" value="Yes" style="edgeStyle=orthogonalEdgeStyle;shape=connector;rounded=1;sketch=1;html=1;labelBackgroundColor=default;fontFamily=Fira Code;fontSource=https%3A%2F%2Ffonts.googleapis.com%2Fcss%3Ffamily%3DFira%2BCode;fontSize=12;fontColor=default;endArrow=classic;strokeColor=default;" edge="1" parent="RE9-uMMAI3yuZbyroZ7X-1" source="M0bXDlwi2XGP6Iuky7ou-6" target="M0bXDlwi2XGP6Iuky7ou-9">
                    <mxGeometry relative="1" as="geometry"/>
                </mxCell>
                <mxCell id="M0bXDlwi2XGP6Iuky7ou-6" value="wd success ?" style="rhombus;whiteSpace=wrap;html=1;fontFamily=Fira Code;rounded=1;sketch=1;fontSource=https%3A%2F%2Ffonts.googleapis.com%2Fcss%3Ffamily%3DFira%2BCode;" vertex="1" parent="RE9-uMMAI3yuZbyroZ7X-1">
                    <mxGeometry x="2070" y="-530" width="80" height="80" as="geometry"/>
                </mxCell>
                <mxCell id="M0bXDlwi2XGP6Iuky7ou-14" style="edgeStyle=orthogonalEdgeStyle;shape=connector;rounded=1;sketch=1;html=1;labelBackgroundColor=default;fontFamily=Fira Code;fontSource=https%3A%2F%2Ffonts.googleapis.com%2Fcss%3Ffamily%3DFira%2BCode;fontSize=12;fontColor=default;endArrow=classic;strokeColor=default;" edge="1" parent="RE9-uMMAI3yuZbyroZ7X-1" source="M0bXDlwi2XGP6Iuky7ou-9" target="rJtMm27bxq3YdEN3bY3k-26">
                    <mxGeometry relative="1" as="geometry">
                        <Array as="points">
                            <mxPoint x="2110" y="-250"/>
                        </Array>
                    </mxGeometry>
                </mxCell>
                <mxCell id="M0bXDlwi2XGP6Iuky7ou-16" style="edgeStyle=orthogonalEdgeStyle;shape=connector;rounded=1;sketch=1;html=1;labelBackgroundColor=default;fontFamily=Fira Code;fontSource=https%3A%2F%2Ffonts.googleapis.com%2Fcss%3Ffamily%3DFira%2BCode;fontSize=12;fontColor=default;endArrow=classic;strokeColor=default;" edge="1" parent="RE9-uMMAI3yuZbyroZ7X-1" source="M0bXDlwi2XGP6Iuky7ou-9">
                    <mxGeometry relative="1" as="geometry">
                        <mxPoint x="2000" y="-210" as="targetPoint"/>
                        <Array as="points">
                            <mxPoint x="2070" y="-210"/>
                        </Array>
                    </mxGeometry>
                </mxCell>
                <mxCell id="M0bXDlwi2XGP6Iuky7ou-9" value="update withdraw document" style="whiteSpace=wrap;html=1;fontFamily=Fira Code;rounded=1;sketch=1;fontSource=https%3A%2F%2Ffonts.googleapis.com%2Fcss%3Ffamily%3DFira%2BCode;" vertex="1" parent="RE9-uMMAI3yuZbyroZ7X-1">
                    <mxGeometry x="2050" y="-360" width="120" height="60" as="geometry"/>
                </mxCell>
                <mxCell id="M0bXDlwi2XGP6Iuky7ou-12" value="" style="edgeStyle=orthogonalEdgeStyle;shape=connector;rounded=1;sketch=1;html=1;labelBackgroundColor=default;fontFamily=Fira Code;fontSource=https%3A%2F%2Ffonts.googleapis.com%2Fcss%3Ffamily%3DFira%2BCode;fontSize=12;fontColor=default;endArrow=classic;strokeColor=default;" edge="1" parent="RE9-uMMAI3yuZbyroZ7X-1" source="M0bXDlwi2XGP6Iuky7ou-11" target="M0bXDlwi2XGP6Iuky7ou-9">
                    <mxGeometry relative="1" as="geometry"/>
                </mxCell>
                <mxCell id="M0bXDlwi2XGP6Iuky7ou-11" value="status = success" style="text;html=1;strokeColor=none;fillColor=none;align=center;verticalAlign=middle;whiteSpace=wrap;rounded=0;sketch=1;fontFamily=Fira Code;fontSource=https%3A%2F%2Ffonts.googleapis.com%2Fcss%3Ffamily%3DFira%2BCode;fontSize=12;fontColor=default;" vertex="1" parent="RE9-uMMAI3yuZbyroZ7X-1">
                    <mxGeometry x="1820" y="-345" width="190" height="30" as="geometry"/>
                </mxCell>
                <mxCell id="M0bXDlwi2XGP6Iuky7ou-18" style="edgeStyle=orthogonalEdgeStyle;shape=connector;rounded=1;sketch=1;html=1;labelBackgroundColor=default;fontFamily=Fira Code;fontSource=https%3A%2F%2Ffonts.googleapis.com%2Fcss%3Ffamily%3DFira%2BCode;fontSize=12;fontColor=default;endArrow=classic;strokeColor=default;" edge="1" parent="RE9-uMMAI3yuZbyroZ7X-1" source="M0bXDlwi2XGP6Iuky7ou-15" target="M0bXDlwi2XGP6Iuky7ou-17">
                    <mxGeometry relative="1" as="geometry"/>
                </mxCell>
                <mxCell id="M0bXDlwi2XGP6Iuky7ou-15" value="Auto withdraw" style="rounded=1;whiteSpace=wrap;html=1;dashed=1;sketch=1;fontFamily=Fira Code;fontSource=https%3A%2F%2Ffonts.googleapis.com%2Fcss%3Ffamily%3DFira%2BCode;fontSize=12;fontColor=default;strokeColor=default;fillColor=default;" vertex="1" parent="RE9-uMMAI3yuZbyroZ7X-1">
                    <mxGeometry x="2115" y="-160" width="120" height="60" as="geometry"/>
                </mxCell>
                <mxCell id="M0bXDlwi2XGP6Iuky7ou-19" style="edgeStyle=orthogonalEdgeStyle;shape=connector;rounded=1;sketch=1;html=1;labelBackgroundColor=default;fontFamily=Fira Code;fontSource=https%3A%2F%2Ffonts.googleapis.com%2Fcss%3Ffamily%3DFira%2BCode;fontSize=12;fontColor=default;endArrow=classic;strokeColor=default;" edge="1" parent="RE9-uMMAI3yuZbyroZ7X-1" source="M0bXDlwi2XGP6Iuky7ou-17" target="M0bXDlwi2XGP6Iuky7ou-15">
                    <mxGeometry relative="1" as="geometry"/>
                </mxCell>
                <mxCell id="M0bXDlwi2XGP6Iuky7ou-17" value="withdraw" style="shape=cylinder3;whiteSpace=wrap;html=1;boundedLbl=1;backgroundOutline=1;size=15;rounded=1;dashed=1;sketch=1;fontFamily=Fira Code;fontSource=https%3A%2F%2Ffonts.googleapis.com%2Fcss%3Ffamily%3DFira%2BCode;fontSize=12;fontColor=default;strokeColor=default;fillColor=default;" vertex="1" parent="RE9-uMMAI3yuZbyroZ7X-1">
                    <mxGeometry x="1930" y="-250" width="60" height="80" as="geometry"/>
                </mxCell>
            </root>
        </mxGraphModel>
    </diagram>
</mxfile>